<svg xmlns="http://www.w3.org/2000/svg" viewBox="0 0 1368 184" width="1368" height="184" role="img" aria-label="TLU · The Leap Union"><path fill="#0936ff" fill-rule="evenodd" d="M7.5 8.0L166.5 8.0L166.0 46.5L131.5 46.0L131.0 8.5L59.5 46.0L116.5 47.0L116.0 161.5L56.5 161.0L56.5 47.0L8.0 46.5L7.5 9.0ZM191.5 8.0L251.0 7.5L252.5 9.0L252.5 123.0L296.0 123.5L328.5 160.0L328.0 161.5L191.5 161.0L191.5 9.0ZM328.5 8.0L388.0 7.5L389.5 9.0L389.5 112.0L390.5 115.0L396.0 120.5L406.0 124.5L412.0 124.5L413.0 125.5L439.0 124.5L449.0 120.5L455.5 114.0L456.5 111.0L456.5 8.0L516.0 7.5L517.5 9.0L517.5 103.0L516.5 106.0L469.0 159.5L453.0 162.5L444.0 162.5L443.0 163.5L400.0 163.5L399.0 162.5L389.0 162.5L388.0 161.5L376.0 160.5L366.5 152.0L329.5 110.0L328.5 108.0L328.5 9.0Z"></path><path fill="#0a0a0a" fill-rule="evenodd" d="M631.5 77.0L652.5 77.0L653.0 109.5L656.0 105.5L661.0 102.5L672.0 101.5L681.0 105.5L685.5 111.0L687.5 117.0L687.0 157.5L666.5 157.0L666.5 122.0L662.0 117.5L657.0 117.5L652.5 122.0L652.5 157.0L632.0 157.5L631.5 78.0ZM558.5 79.0L624.5 79.0L624.0 97.5L601.5 98.0L601.5 157.0L580.5 157.0L580.5 98.0L558.0 97.5L558.0 79.5ZM784.5 79.0L805.5 79.0L805.5 140.0L837.5 141.0L837.0 157.5L784.5 157.0L784.5 80.0ZM1062.5 79.0L1083.5 79.0L1083.5 127.0L1084.5 128.0L1084.5 133.0L1089.0 139.5L1094.0 141.5L1100.0 141.5L1104.0 139.5L1107.5 136.0L1109.5 130.0L1109.5 79.0L1130.5 79.0L1130.5 134.0L1127.5 144.0L1118.0 154.5L1107.0 158.5L1098.0 158.5L1097.0 159.5L1083.0 157.5L1074.0 153.5L1068.5 148.0L1065.5 143.0L1062.5 132.0L1062.5 80.0ZM1209.5 79.0L1229.5 79.0L1229.0 96.5L1210.0 96.5L1209.5 80.0ZM718.5 101.0L730.0 100.5L743.0 106.5L750.5 118.0L751.5 134.0L717.0 134.5L716.5 139.0L717.5 141.0L722.0 144.5L728.0 144.5L734.0 138.5L751.0 138.5L751.5 143.0L749.5 147.0L742.0 154.5L736.0 157.5L726.0 158.5L725.0 159.5L711.0 156.5L706.0 153.5L700.5 148.0L695.5 136.0L695.5 125.0L697.5 118.0L701.5 111.0L707.0 105.5L712.0 102.5L718.0 101.5ZM866.5 101.0L878.0 100.5L882.0 101.5L892.0 107.5L898.5 118.0L899.5 134.0L865.0 134.5L864.5 139.0L865.5 141.0L870.0 144.5L876.0 144.5L882.0 138.5L899.0 138.5L899.5 143.0L897.5 147.0L890.0 154.5L884.0 157.5L874.0 158.5L873.0 159.5L872.0 158.5L861.0 157.5L854.0 153.5L848.5 148.0L845.5 143.0L843.5 136.0L843.5 125.0L845.5 118.0L849.5 111.0L855.0 105.5L860.0 102.5L866.0 101.5ZM927.5 101.0L942.0 100.5L947.0 101.5L954.0 104.5L958.5 109.0L960.5 114.0L960.5 157.0L943.0 157.5L941.0 149.5L938.5 154.0L934.0 157.5L925.0 159.5L914.0 156.5L907.5 150.0L905.5 139.0L908.5 131.0L913.0 126.5L924.0 122.5L940.5 121.0L939.5 116.0L934.0 113.5L928.0 115.5L925.0 118.5L908.5 118.0L908.5 114.0L910.5 110.0L916.0 104.5L923.0 101.5L927.0 101.5ZM1004.5 101.0L1013.0 100.5L1016.0 101.5L1020.0 103.5L1027.5 112.0L1030.5 122.0L1030.5 137.0L1028.5 144.0L1024.5 151.0L1016.0 157.5L1005.0 159.5L999.0 157.5L995.5 154.0L994.5 151.0L993.0 150.5L992.5 175.0L971.5 175.0L971.5 102.0L993.0 101.5L994.0 107.5L999.0 102.5L1004.0 101.5ZM1261.5 101.0L1273.0 100.5L1279.0 102.5L1287.0 107.5L1291.5 113.0L1295.5 124.0L1295.5 136.0L1293.5 143.0L1290.5 148.0L1284.0 154.5L1278.0 157.5L1268.0 158.5L1267.0 159.5L1266.0 158.5L1259.0 158.5L1250.0 154.5L1242.5 147.0L1238.5 136.0L1238.5 124.0L1240.5 117.0L1242.5 113.0L1251.0 104.5L1258.0 101.5L1261.0 101.5ZM1142.5 102.0L1163.0 101.5L1164.0 108.5L1171.0 102.5L1184.0 101.5L1191.0 104.5L1195.5 109.0L1198.5 116.0L1198.0 157.5L1177.5 157.0L1177.5 122.0L1173.0 117.5L1168.0 117.5L1163.5 122.0L1163.5 157.0L1143.0 157.5L1142.5 103.0ZM1209.5 102.0L1229.5 102.0L1229.0 157.5L1209.5 157.0L1209.5 103.0ZM1303.5 102.0L1324.0 101.5L1324.5 108.0L1326.0 108.5L1329.0 104.5L1335.0 101.5L1345.0 101.5L1354.0 105.5L1359.5 114.0L1359.0 157.5L1338.5 157.0L1338.5 121.0L1335.0 117.5L1330.0 117.5L1325.5 121.0L1325.5 157.0L1304.0 157.5L1303.5 103.0ZM721.5 115.0L727.0 114.5L729.0 115.5L731.5 118.0L732.5 122.0L717.0 122.5L716.5 119.0L721.0 115.5ZM869.5 115.0L875.0 114.5L877.0 115.5L879.5 118.0L880.5 122.0L865.0 122.5L864.5 119.0L869.0 115.5ZM998.5 116.0L1005.0 115.5L1009.5 120.0L1011.5 127.0L1011.5 133.0L1008.5 141.0L1004.0 144.5L1000.0 144.5L993.5 138.0L992.5 126.0L994.5 120.0L998.0 116.5ZM1264.5 116.0L1269.0 115.5L1274.5 121.0L1275.5 133.0L1273.5 140.0L1270.0 143.5L1264.0 143.5L1259.5 138.0L1258.5 133.0L1259.5 121.0L1264.0 116.5ZM933.5 132.0L940.5 132.0L939.5 142.0L936.0 145.5L930.0 145.5L926.5 143.0L925.5 137.0L929.0 133.5L933.0 132.5Z"></path></svg>