<svg fill="#9fbeff" viewBox="0 0 1000 500" xmlns="http://www.w3.org/2000/svg" preserveAspectRatio="xMidYMid meet"><circle cx="364.0" cy="36.0" r="1.6"/><circle cx="378.0" cy="36.0" r="1.6"/><circle cx="392.0" cy="36.0" r="1.6"/><circle cx="406.0" cy="36.0" r="1.6"/><circle cx="420.0" cy="36.0" r="1.6"/><circle cx="434.0" cy="36.0" r="1.6"/><circle cx="924.0" cy="36.0" r="1.6"/><circle cx="938.0" cy="36.0" r="1.6"/><circle cx="952.0" cy="36.0" r="1.6"/><circle cx="966.0" cy="36.0" r="1.6"/><circle cx="350.0" cy="43.0" r="1.6"/><circle cx="364.0" cy="43.0" r="1.6"/><circle cx="378.0" cy="43.0" r="1.6"/><circle cx="392.0" cy="43.0" r="1.6"/><circle cx="406.0" cy="43.0" r="1.6"/><circle cx="420.0" cy="43.0" r="1.6"/><circle cx="434.0" cy="43.0" r="1.6"/><circle cx="644.0" cy="43.0" r="1.6"/><circle cx="658.0" cy="43.0" r="1.6"/><circle cx="672.0" cy="43.0" r="1.6"/><circle cx="686.0" cy="43.0" r="1.6"/><circle cx="700.0" cy="43.0" r="1.6"/><circle cx="714.0" cy="43.0" r="1.6"/><circle cx="728.0" cy="43.0" r="1.6"/><circle cx="742.0" cy="43.0" r="1.6"/><circle cx="756.0" cy="43.0" r="1.6"/><circle cx="770.0" cy="43.0" r="1.6"/><circle cx="784.0" cy="43.0" r="1.6"/><circle cx="798.0" cy="43.0" r="1.6"/><circle cx="812.0" cy="43.0" r="1.6"/><circle cx="826.0" cy="43.0" r="1.6"/><circle cx="840.0" cy="43.0" r="1.6"/><circle cx="854.0" cy="43.0" r="1.6"/><circle cx="868.0" cy="43.0" r="1.6"/><circle cx="882.0" cy="43.0" r="1.6"/><circle cx="896.0" cy="43.0" r="1.6"/><circle cx="910.0" cy="43.0" r="1.6"/><circle cx="924.0" cy="43.0" r="1.6"/><circle cx="938.0" cy="43.0" r="1.6"/><circle cx="952.0" cy="43.0" r="1.6"/><circle cx="966.0" cy="43.0" r="1.6"/><circle cx="980.0" cy="43.0" r="1.6"/><circle cx="994.0" cy="43.0" r="1.6"/><circle cx="196.0" cy="50.0" r="1.6"/><circle cx="210.0" cy="50.0" r="1.6"/><circle cx="224.0" cy="50.0" r="1.6"/><circle cx="238.0" cy="50.0" r="1.6"/><circle cx="252.0" cy="50.0" r="1.6"/><circle cx="266.0" cy="50.0" r="1.6"/><circle cx="280.0" cy="50.0" r="1.6"/><circle cx="350.0" cy="50.0" r="1.6"/><circle cx="364.0" cy="50.0" r="1.6"/><circle cx="378.0" cy="50.0" r="1.6"/><circle cx="392.0" cy="50.0" r="1.6"/><circle cx="406.0" cy="50.0" r="1.6"/><circle cx="420.0" cy="50.0" r="1.6"/><circle cx="434.0" cy="50.0" r="1.6"/><circle cx="616.0" cy="50.0" r="1.6"/><circle cx="630.0" cy="50.0" r="1.6"/><circle cx="644.0" cy="50.0" r="1.6"/><circle cx="658.0" cy="50.0" r="1.6"/><circle cx="672.0" cy="50.0" r="1.6"/><circle cx="686.0" cy="50.0" r="1.6"/><circle cx="700.0" cy="50.0" r="1.6"/><circle cx="714.0" cy="50.0" r="1.6"/><circle cx="728.0" cy="50.0" r="1.6"/><circle cx="742.0" cy="50.0" r="1.6"/><circle cx="756.0" cy="50.0" r="1.6"/><circle cx="770.0" cy="50.0" r="1.6"/><circle cx="784.0" cy="50.0" r="1.6"/><circle cx="798.0" cy="50.0" r="1.6"/><circle cx="812.0" cy="50.0" r="1.6"/><circle cx="826.0" cy="50.0" r="1.6"/><circle cx="840.0" cy="50.0" r="1.6"/><circle cx="854.0" cy="50.0" r="1.6"/><circle cx="868.0" cy="50.0" r="1.6"/><circle cx="882.0" cy="50.0" r="1.6"/><circle cx="896.0" cy="50.0" r="1.6"/><circle cx="910.0" cy="50.0" r="1.6"/><circle cx="924.0" cy="50.0" r="1.6"/><circle cx="938.0" cy="50.0" r="1.6"/><circle cx="952.0" cy="50.0" r="1.6"/><circle cx="966.0" cy="50.0" r="1.6"/><circle cx="980.0" cy="50.0" r="1.6"/><circle cx="994.0" cy="50.0" r="1.6"/><circle cx="56.0" cy="57.0" r="1.6"/><circle cx="70.0" cy="57.0" r="1.6"/><circle cx="84.0" cy="57.0" r="1.6"/><circle cx="98.0" cy="57.0" r="1.6"/><circle cx="112.0" cy="57.0" r="1.6"/><circle cx="126.0" cy="57.0" r="1.6"/><circle cx="140.0" cy="57.0" r="1.6"/><circle cx="154.0" cy="57.0" r="1.6"/><circle cx="168.0" cy="57.0" r="1.6"/><circle cx="182.0" cy="57.0" r="1.6"/><circle cx="196.0" cy="57.0" r="1.6"/><circle cx="210.0" cy="57.0" r="1.6"/><circle cx="224.0" cy="57.0" r="1.6"/><circle cx="238.0" cy="57.0" r="1.6"/><circle cx="252.0" cy="57.0" r="1.6"/><circle cx="266.0" cy="57.0" r="1.6"/><circle cx="280.0" cy="57.0" r="1.6"/><circle cx="294.0" cy="57.0" r="1.6"/><circle cx="308.0" cy="57.0" r="1.6"/><circle cx="350.0" cy="57.0" r="1.6"/><circle cx="364.0" cy="57.0" r="1.6"/><circle cx="378.0" cy="57.0" r="1.6"/><circle cx="392.0" cy="57.0" r="1.6"/><circle cx="406.0" cy="57.0" r="1.6"/><circle cx="420.0" cy="57.0" r="1.6"/><circle cx="434.0" cy="57.0" r="1.6"/><circle cx="560.0" cy="57.0" r="1.6"/><circle cx="574.0" cy="57.0" r="1.6"/><circle cx="588.0" cy="57.0" r="1.6"/><circle cx="602.0" cy="57.0" r="1.6"/><circle cx="616.0" cy="57.0" r="1.6"/><circle cx="630.0" cy="57.0" r="1.6"/><circle cx="644.0" cy="57.0" r="1.6"/><circle cx="658.0" cy="57.0" r="1.6"/><circle cx="672.0" cy="57.0" r="1.6"/><circle cx="686.0" cy="57.0" r="1.6"/><circle cx="700.0" cy="57.0" r="1.6"/><circle cx="714.0" cy="57.0" r="1.6"/><circle cx="728.0" cy="57.0" r="1.6"/><circle cx="742.0" cy="57.0" r="1.6"/><circle cx="756.0" cy="57.0" r="1.6"/><circle cx="770.0" cy="57.0" r="1.6"/><circle cx="784.0" cy="57.0" r="1.6"/><circle cx="798.0" cy="57.0" r="1.6"/><circle cx="812.0" cy="57.0" r="1.6"/><circle cx="826.0" cy="57.0" r="1.6"/><circle cx="840.0" cy="57.0" r="1.6"/><circle cx="854.0" cy="57.0" r="1.6"/><circle cx="868.0" cy="57.0" r="1.6"/><circle cx="882.0" cy="57.0" r="1.6"/><circle cx="896.0" cy="57.0" r="1.6"/><circle cx="910.0" cy="57.0" r="1.6"/><circle cx="924.0" cy="57.0" r="1.6"/><circle cx="938.0" cy="57.0" r="1.6"/><circle cx="952.0" cy="57.0" r="1.6"/><circle cx="966.0" cy="57.0" r="1.6"/><circle cx="980.0" cy="57.0" r="1.6"/><circle cx="42.0" cy="64.0" r="1.6"/><circle cx="56.0" cy="64.0" r="1.6"/><circle cx="70.0" cy="64.0" r="1.6"/><circle cx="84.0" cy="64.0" r="1.6"/><circle cx="98.0" cy="64.0" r="1.6"/><circle cx="112.0" cy="64.0" r="1.6"/><circle cx="126.0" cy="64.0" r="1.6"/><circle cx="140.0" cy="64.0" r="1.6"/><circle cx="154.0" cy="64.0" r="1.6"/><circle cx="168.0" cy="64.0" r="1.6"/><circle cx="182.0" cy="64.0" r="1.6"/><circle cx="196.0" cy="64.0" r="1.6"/><circle cx="210.0" cy="64.0" r="1.6"/><circle cx="224.0" cy="64.0" r="1.6"/><circle cx="238.0" cy="64.0" r="1.6"/><circle cx="252.0" cy="64.0" r="1.6"/><circle cx="266.0" cy="64.0" r="1.6"/><circle cx="280.0" cy="64.0" r="1.6"/><circle cx="294.0" cy="64.0" r="1.6"/><circle cx="308.0" cy="64.0" r="1.6"/><circle cx="322.0" cy="64.0" r="1.6"/><circle cx="364.0" cy="64.0" r="1.6"/><circle cx="378.0" cy="64.0" r="1.6"/><circle cx="392.0" cy="64.0" r="1.6"/><circle cx="406.0" cy="64.0" r="1.6"/><circle cx="420.0" cy="64.0" r="1.6"/><circle cx="434.0" cy="64.0" r="1.6"/><circle cx="448.0" cy="64.0" r="1.6"/><circle cx="546.0" cy="64.0" r="1.6"/><circle cx="560.0" cy="64.0" r="1.6"/><circle cx="574.0" cy="64.0" r="1.6"/><circle cx="588.0" cy="64.0" r="1.6"/><circle cx="602.0" cy="64.0" r="1.6"/><circle cx="616.0" cy="64.0" r="1.6"/><circle cx="630.0" cy="64.0" r="1.6"/><circle cx="644.0" cy="64.0" r="1.6"/><circle cx="658.0" cy="64.0" r="1.6"/><circle cx="672.0" cy="64.0" r="1.6"/><circle cx="686.0" cy="64.0" r="1.6"/><circle cx="700.0" cy="64.0" r="1.6"/><circle cx="714.0" cy="64.0" r="1.6"/><circle cx="728.0" cy="64.0" r="1.6"/><circle cx="742.0" cy="64.0" r="1.6"/><circle cx="756.0" cy="64.0" r="1.6"/><circle cx="770.0" cy="64.0" r="1.6"/><circle cx="784.0" cy="64.0" r="1.6"/><circle cx="798.0" cy="64.0" r="1.6"/><circle cx="812.0" cy="64.0" r="1.6"/><circle cx="826.0" cy="64.0" r="1.6"/><circle cx="840.0" cy="64.0" r="1.6"/><circle cx="854.0" cy="64.0" r="1.6"/><circle cx="868.0" cy="64.0" r="1.6"/><circle cx="882.0" cy="64.0" r="1.6"/><circle cx="896.0" cy="64.0" r="1.6"/><circle cx="910.0" cy="64.0" r="1.6"/><circle cx="42.0" cy="71.0" r="1.6"/><circle cx="56.0" cy="71.0" r="1.6"/><circle cx="70.0" cy="71.0" r="1.6"/><circle cx="84.0" cy="71.0" r="1.6"/><circle cx="98.0" cy="71.0" r="1.6"/><circle cx="112.0" cy="71.0" r="1.6"/><circle cx="126.0" cy="71.0" r="1.6"/><circle cx="140.0" cy="71.0" r="1.6"/><circle cx="154.0" cy="71.0" r="1.6"/><circle cx="168.0" cy="71.0" r="1.6"/><circle cx="182.0" cy="71.0" r="1.6"/><circle cx="196.0" cy="71.0" r="1.6"/><circle cx="210.0" cy="71.0" r="1.6"/><circle cx="224.0" cy="71.0" r="1.6"/><circle cx="238.0" cy="71.0" r="1.6"/><circle cx="252.0" cy="71.0" r="1.6"/><circle cx="266.0" cy="71.0" r="1.6"/><circle cx="280.0" cy="71.0" r="1.6"/><circle cx="294.0" cy="71.0" r="1.6"/><circle cx="308.0" cy="71.0" r="1.6"/><circle cx="322.0" cy="71.0" r="1.6"/><circle cx="364.0" cy="71.0" r="1.6"/><circle cx="378.0" cy="71.0" r="1.6"/><circle cx="392.0" cy="71.0" r="1.6"/><circle cx="406.0" cy="71.0" r="1.6"/><circle cx="420.0" cy="71.0" r="1.6"/><circle cx="448.0" cy="71.0" r="1.6"/><circle cx="532.0" cy="71.0" r="1.6"/><circle cx="546.0" cy="71.0" r="1.6"/><circle cx="560.0" cy="71.0" r="1.6"/><circle cx="574.0" cy="71.0" r="1.6"/><circle cx="588.0" cy="71.0" r="1.6"/><circle cx="602.0" cy="71.0" r="1.6"/><circle cx="616.0" cy="71.0" r="1.6"/><circle cx="630.0" cy="71.0" r="1.6"/><circle cx="644.0" cy="71.0" r="1.6"/><circle cx="658.0" cy="71.0" r="1.6"/><circle cx="672.0" cy="71.0" r="1.6"/><circle cx="686.0" cy="71.0" r="1.6"/><circle cx="700.0" cy="71.0" r="1.6"/><circle cx="714.0" cy="71.0" r="1.6"/><circle cx="728.0" cy="71.0" r="1.6"/><circle cx="742.0" cy="71.0" r="1.6"/><circle cx="756.0" cy="71.0" r="1.6"/><circle cx="770.0" cy="71.0" r="1.6"/><circle cx="784.0" cy="71.0" r="1.6"/><circle cx="798.0" cy="71.0" r="1.6"/><circle cx="812.0" cy="71.0" r="1.6"/><circle cx="826.0" cy="71.0" r="1.6"/><circle cx="840.0" cy="71.0" r="1.6"/><circle cx="854.0" cy="71.0" r="1.6"/><circle cx="868.0" cy="71.0" r="1.6"/><circle cx="56.0" cy="78.0" r="1.6"/><circle cx="70.0" cy="78.0" r="1.6"/><circle cx="84.0" cy="78.0" r="1.6"/><circle cx="98.0" cy="78.0" r="1.6"/><circle cx="112.0" cy="78.0" r="1.6"/><circle cx="126.0" cy="78.0" r="1.6"/><circle cx="140.0" cy="78.0" r="1.6"/><circle cx="154.0" cy="78.0" r="1.6"/><circle cx="168.0" cy="78.0" r="1.6"/><circle cx="182.0" cy="78.0" r="1.6"/><circle cx="196.0" cy="78.0" r="1.6"/><circle cx="210.0" cy="78.0" r="1.6"/><circle cx="224.0" cy="78.0" r="1.6"/><circle cx="238.0" cy="78.0" r="1.6"/><circle cx="252.0" cy="78.0" r="1.6"/><circle cx="266.0" cy="78.0" r="1.6"/><circle cx="280.0" cy="78.0" r="1.6"/><circle cx="294.0" cy="78.0" r="1.6"/><circle cx="308.0" cy="78.0" r="1.6"/><circle cx="322.0" cy="78.0" r="1.6"/><circle cx="364.0" cy="78.0" r="1.6"/><circle cx="378.0" cy="78.0" r="1.6"/><circle cx="392.0" cy="78.0" r="1.6"/><circle cx="406.0" cy="78.0" r="1.6"/><circle cx="420.0" cy="78.0" r="1.6"/><circle cx="518.0" cy="78.0" r="1.6"/><circle cx="532.0" cy="78.0" r="1.6"/><circle cx="546.0" cy="78.0" r="1.6"/><circle cx="560.0" cy="78.0" r="1.6"/><circle cx="574.0" cy="78.0" r="1.6"/><circle cx="588.0" cy="78.0" r="1.6"/><circle cx="602.0" cy="78.0" r="1.6"/><circle cx="616.0" cy="78.0" r="1.6"/><circle cx="630.0" cy="78.0" r="1.6"/><circle cx="644.0" cy="78.0" r="1.6"/><circle cx="658.0" cy="78.0" r="1.6"/><circle cx="672.0" cy="78.0" r="1.6"/><circle cx="686.0" cy="78.0" r="1.6"/><circle cx="700.0" cy="78.0" r="1.6"/><circle cx="714.0" cy="78.0" r="1.6"/><circle cx="728.0" cy="78.0" r="1.6"/><circle cx="742.0" cy="78.0" r="1.6"/><circle cx="756.0" cy="78.0" r="1.6"/><circle cx="770.0" cy="78.0" r="1.6"/><circle cx="784.0" cy="78.0" r="1.6"/><circle cx="798.0" cy="78.0" r="1.6"/><circle cx="812.0" cy="78.0" r="1.6"/><circle cx="826.0" cy="78.0" r="1.6"/><circle cx="840.0" cy="78.0" r="1.6"/><circle cx="56.0" cy="85.0" r="1.6"/><circle cx="70.0" cy="85.0" r="1.6"/><circle cx="84.0" cy="85.0" r="1.6"/><circle cx="98.0" cy="85.0" r="1.6"/><circle cx="112.0" cy="85.0" r="1.6"/><circle cx="126.0" cy="85.0" r="1.6"/><circle cx="140.0" cy="85.0" r="1.6"/><circle cx="154.0" cy="85.0" r="1.6"/><circle cx="168.0" cy="85.0" r="1.6"/><circle cx="182.0" cy="85.0" r="1.6"/><circle cx="196.0" cy="85.0" r="1.6"/><circle cx="210.0" cy="85.0" r="1.6"/><circle cx="224.0" cy="85.0" r="1.6"/><circle cx="238.0" cy="85.0" r="1.6"/><circle cx="252.0" cy="85.0" r="1.6"/><circle cx="266.0" cy="85.0" r="1.6"/><circle cx="280.0" cy="85.0" r="1.6"/><circle cx="294.0" cy="85.0" r="1.6"/><circle cx="308.0" cy="85.0" r="1.6"/><circle cx="322.0" cy="85.0" r="1.6"/><circle cx="504.0" cy="85.0" r="1.6"/><circle cx="518.0" cy="85.0" r="1.6"/><circle cx="532.0" cy="85.0" r="1.6"/><circle cx="546.0" cy="85.0" r="1.6"/><circle cx="560.0" cy="85.0" r="1.6"/><circle cx="574.0" cy="85.0" r="1.6"/><circle cx="588.0" cy="85.0" r="1.6"/><circle cx="602.0" cy="85.0" r="1.6"/><circle cx="616.0" cy="85.0" r="1.6"/><circle cx="630.0" cy="85.0" r="1.6"/><circle cx="644.0" cy="85.0" r="1.6"/><circle cx="658.0" cy="85.0" r="1.6"/><circle cx="672.0" cy="85.0" r="1.6"/><circle cx="686.0" cy="85.0" r="1.6"/><circle cx="700.0" cy="85.0" r="1.6"/><circle cx="714.0" cy="85.0" r="1.6"/><circle cx="728.0" cy="85.0" r="1.6"/><circle cx="742.0" cy="85.0" r="1.6"/><circle cx="756.0" cy="85.0" r="1.6"/><circle cx="770.0" cy="85.0" r="1.6"/><circle cx="126.0" cy="92.0" r="1.6"/><circle cx="140.0" cy="92.0" r="1.6"/><circle cx="154.0" cy="92.0" r="1.6"/><circle cx="168.0" cy="92.0" r="1.6"/><circle cx="182.0" cy="92.0" r="1.6"/><circle cx="196.0" cy="92.0" r="1.6"/><circle cx="210.0" cy="92.0" r="1.6"/><circle cx="224.0" cy="92.0" r="1.6"/><circle cx="238.0" cy="92.0" r="1.6"/><circle cx="252.0" cy="92.0" r="1.6"/><circle cx="266.0" cy="92.0" r="1.6"/><circle cx="280.0" cy="92.0" r="1.6"/><circle cx="294.0" cy="92.0" r="1.6"/><circle cx="308.0" cy="92.0" r="1.6"/><circle cx="322.0" cy="92.0" r="1.6"/><circle cx="490.0" cy="92.0" r="1.6"/><circle cx="504.0" cy="92.0" r="1.6"/><circle cx="518.0" cy="92.0" r="1.6"/><circle cx="532.0" cy="92.0" r="1.6"/><circle cx="546.0" cy="92.0" r="1.6"/><circle cx="560.0" cy="92.0" r="1.6"/><circle cx="574.0" cy="92.0" r="1.6"/><circle cx="588.0" cy="92.0" r="1.6"/><circle cx="602.0" cy="92.0" r="1.6"/><circle cx="616.0" cy="92.0" r="1.6"/><circle cx="630.0" cy="92.0" r="1.6"/><circle cx="644.0" cy="92.0" r="1.6"/><circle cx="658.0" cy="92.0" r="1.6"/><circle cx="672.0" cy="92.0" r="1.6"/><circle cx="686.0" cy="92.0" r="1.6"/><circle cx="700.0" cy="92.0" r="1.6"/><circle cx="714.0" cy="92.0" r="1.6"/><circle cx="728.0" cy="92.0" r="1.6"/><circle cx="742.0" cy="92.0" r="1.6"/><circle cx="133.0" cy="99.0" r="1.6"/><circle cx="140.0" cy="99.0" r="1.6"/><circle cx="147.0" cy="99.0" r="1.6"/><circle cx="154.0" cy="99.0" r="1.6"/><circle cx="161.0" cy="99.0" r="1.6"/><circle cx="168.0" cy="99.0" r="1.6"/><circle cx="175.0" cy="99.0" r="1.6"/><circle cx="182.0" cy="99.0" r="1.6"/><circle cx="189.0" cy="99.0" r="1.6"/><circle cx="196.0" cy="99.0" r="1.6"/><circle cx="203.0" cy="99.0" r="1.6"/><circle cx="210.0" cy="99.0" r="1.6"/><circle cx="217.0" cy="99.0" r="1.6"/><circle cx="224.0" cy="99.0" r="1.6"/><circle cx="231.0" cy="99.0" r="1.6"/><circle cx="238.0" cy="99.0" r="1.6"/><circle cx="245.0" cy="99.0" r="1.6"/><circle cx="252.0" cy="99.0" r="1.6"/><circle cx="259.0" cy="99.0" r="1.6"/><circle cx="266.0" cy="99.0" r="1.6"/><circle cx="273.0" cy="99.0" r="1.6"/><circle cx="280.0" cy="99.0" r="1.6"/><circle cx="287.0" cy="99.0" r="1.6"/><circle cx="294.0" cy="99.0" r="1.6"/><circle cx="301.0" cy="99.0" r="1.6"/><circle cx="308.0" cy="99.0" r="1.6"/><circle cx="315.0" cy="99.0" r="1.6"/><circle cx="322.0" cy="99.0" r="1.6"/><circle cx="329.0" cy="99.0" r="1.6"/><circle cx="336.0" cy="99.0" r="1.6"/><circle cx="490.0" cy="99.0" r="1.6"/><circle cx="497.0" cy="99.0" r="1.6"/><circle cx="504.0" cy="99.0" r="1.6"/><circle cx="511.0" cy="99.0" r="1.6"/><circle cx="518.0" cy="99.0" r="1.6"/><circle cx="525.0" cy="99.0" r="1.6"/><circle cx="532.0" cy="99.0" r="1.6"/><circle cx="539.0" cy="99.0" r="1.6"/><circle cx="546.0" cy="99.0" r="1.6"/><circle cx="553.0" cy="99.0" r="1.6"/><circle cx="560.0" cy="99.0" r="1.6"/><circle cx="567.0" cy="99.0" r="1.6"/><circle cx="574.0" cy="99.0" r="1.6"/><circle cx="581.0" cy="99.0" r="1.6"/><circle cx="588.0" cy="99.0" r="1.6"/><circle cx="595.0" cy="99.0" r="1.6"/><circle cx="602.0" cy="99.0" r="1.6"/><circle cx="609.0" cy="99.0" r="1.6"/><circle cx="616.0" cy="99.0" r="1.6"/><circle cx="623.0" cy="99.0" r="1.6"/><circle cx="630.0" cy="99.0" r="1.6"/><circle cx="637.0" cy="99.0" r="1.6"/><circle cx="644.0" cy="99.0" r="1.6"/><circle cx="651.0" cy="99.0" r="1.6"/><circle cx="658.0" cy="99.0" r="1.6"/><circle cx="665.0" cy="99.0" r="1.6"/><circle cx="672.0" cy="99.0" r="1.6"/><circle cx="679.0" cy="99.0" r="1.6"/><circle cx="686.0" cy="99.0" r="1.6"/><circle cx="693.0" cy="99.0" r="1.6"/><circle cx="700.0" cy="99.0" r="1.6"/><circle cx="707.0" cy="99.0" r="1.6"/><circle cx="714.0" cy="99.0" r="1.6"/><circle cx="147.0" cy="106.0" r="1.6"/><circle cx="154.0" cy="106.0" r="1.6"/><circle cx="161.0" cy="106.0" r="1.6"/><circle cx="168.0" cy="106.0" r="1.6"/><circle cx="175.0" cy="106.0" r="1.6"/><circle cx="182.0" cy="106.0" r="1.6"/><circle cx="189.0" cy="106.0" r="1.6"/><circle cx="196.0" cy="106.0" r="1.6"/><circle cx="203.0" cy="106.0" r="1.6"/><circle cx="210.0" cy="106.0" r="1.6"/><circle cx="217.0" cy="106.0" r="1.6"/><circle cx="224.0" cy="106.0" r="1.6"/><circle cx="231.0" cy="106.0" r="1.6"/><circle cx="238.0" cy="106.0" r="1.6"/><circle cx="245.0" cy="106.0" r="1.6"/><circle cx="252.0" cy="106.0" r="1.6"/><circle cx="259.0" cy="106.0" r="1.6"/><circle cx="266.0" cy="106.0" r="1.6"/><circle cx="273.0" cy="106.0" r="1.6"/><circle cx="280.0" cy="106.0" r="1.6"/><circle cx="287.0" cy="106.0" r="1.6"/><circle cx="294.0" cy="106.0" r="1.6"/><circle cx="301.0" cy="106.0" r="1.6"/><circle cx="308.0" cy="106.0" r="1.6"/><circle cx="315.0" cy="106.0" r="1.6"/><circle cx="322.0" cy="106.0" r="1.6"/><circle cx="329.0" cy="106.0" r="1.6"/><circle cx="336.0" cy="106.0" r="1.6"/><circle cx="476.0" cy="106.0" r="1.6"/><circle cx="483.0" cy="106.0" r="1.6"/><circle cx="490.0" cy="106.0" r="1.6"/><circle cx="497.0" cy="106.0" r="1.6"/><circle cx="546.0" cy="106.0" r="1.6"/><circle cx="553.0" cy="106.0" r="1.6"/><circle cx="560.0" cy="106.0" r="1.6"/><circle cx="567.0" cy="106.0" r="1.6"/><circle cx="574.0" cy="106.0" r="1.6"/><circle cx="581.0" cy="106.0" r="1.6"/><circle cx="588.0" cy="106.0" r="1.6"/><circle cx="595.0" cy="106.0" r="1.6"/><circle cx="602.0" cy="106.0" r="1.6"/><circle cx="609.0" cy="106.0" r="1.6"/><circle cx="616.0" cy="106.0" r="1.6"/><circle cx="623.0" cy="106.0" r="1.6"/><circle cx="630.0" cy="106.0" r="1.6"/><circle cx="637.0" cy="106.0" r="1.6"/><circle cx="644.0" cy="106.0" r="1.6"/><circle cx="651.0" cy="106.0" r="1.6"/><circle cx="658.0" cy="106.0" r="1.6"/><circle cx="665.0" cy="106.0" r="1.6"/><circle cx="672.0" cy="106.0" r="1.6"/><circle cx="679.0" cy="106.0" r="1.6"/><circle cx="686.0" cy="106.0" r="1.6"/><circle cx="147.0" cy="113.0" r="1.6"/><circle cx="154.0" cy="113.0" r="1.6"/><circle cx="161.0" cy="113.0" r="1.6"/><circle cx="168.0" cy="113.0" r="1.6"/><circle cx="175.0" cy="113.0" r="1.6"/><circle cx="182.0" cy="113.0" r="1.6"/><circle cx="189.0" cy="113.0" r="1.6"/><circle cx="196.0" cy="113.0" r="1.6"/><circle cx="203.0" cy="113.0" r="1.6"/><circle cx="210.0" cy="113.0" r="1.6"/><circle cx="217.0" cy="113.0" r="1.6"/><circle cx="224.0" cy="113.0" r="1.6"/><circle cx="231.0" cy="113.0" r="1.6"/><circle cx="238.0" cy="113.0" r="1.6"/><circle cx="245.0" cy="113.0" r="1.6"/><circle cx="252.0" cy="113.0" r="1.6"/><circle cx="259.0" cy="113.0" r="1.6"/><circle cx="266.0" cy="113.0" r="1.6"/><circle cx="273.0" cy="113.0" r="1.6"/><circle cx="280.0" cy="113.0" r="1.6"/><circle cx="287.0" cy="113.0" r="1.6"/><circle cx="294.0" cy="113.0" r="1.6"/><circle cx="301.0" cy="113.0" r="1.6"/><circle cx="308.0" cy="113.0" r="1.6"/><circle cx="315.0" cy="113.0" r="1.6"/><circle cx="322.0" cy="113.0" r="1.6"/><circle cx="329.0" cy="113.0" r="1.6"/><circle cx="560.0" cy="113.0" r="1.6"/><circle cx="567.0" cy="113.0" r="1.6"/><circle cx="574.0" cy="113.0" r="1.6"/><circle cx="581.0" cy="113.0" r="1.6"/><circle cx="588.0" cy="113.0" r="1.6"/><circle cx="595.0" cy="113.0" r="1.6"/><circle cx="602.0" cy="113.0" r="1.6"/><circle cx="609.0" cy="113.0" r="1.6"/><circle cx="616.0" cy="113.0" r="1.6"/><circle cx="623.0" cy="113.0" r="1.6"/><circle cx="630.0" cy="113.0" r="1.6"/><circle cx="637.0" cy="113.0" r="1.6"/><circle cx="644.0" cy="113.0" r="1.6"/><circle cx="651.0" cy="113.0" r="1.6"/><circle cx="658.0" cy="113.0" r="1.6"/><circle cx="665.0" cy="113.0" r="1.6"/><circle cx="147.0" cy="120.0" r="1.6"/><circle cx="154.0" cy="120.0" r="1.6"/><circle cx="161.0" cy="120.0" r="1.6"/><circle cx="168.0" cy="120.0" r="1.6"/><circle cx="175.0" cy="120.0" r="1.6"/><circle cx="182.0" cy="120.0" r="1.6"/><circle cx="189.0" cy="120.0" r="1.6"/><circle cx="196.0" cy="120.0" r="1.6"/><circle cx="203.0" cy="120.0" r="1.6"/><circle cx="210.0" cy="120.0" r="1.6"/><circle cx="217.0" cy="120.0" r="1.6"/><circle cx="224.0" cy="120.0" r="1.6"/><circle cx="231.0" cy="120.0" r="1.6"/><circle cx="238.0" cy="120.0" r="1.6"/><circle cx="245.0" cy="120.0" r="1.6"/><circle cx="252.0" cy="120.0" r="1.6"/><circle cx="259.0" cy="120.0" r="1.6"/><circle cx="266.0" cy="120.0" r="1.6"/><circle cx="273.0" cy="120.0" r="1.6"/><circle cx="280.0" cy="120.0" r="1.6"/><circle cx="287.0" cy="120.0" r="1.6"/><circle cx="294.0" cy="120.0" r="1.6"/><circle cx="301.0" cy="120.0" r="1.6"/><circle cx="308.0" cy="120.0" r="1.6"/><circle cx="315.0" cy="120.0" r="1.6"/><circle cx="322.0" cy="120.0" r="1.6"/><circle cx="574.0" cy="120.0" r="1.6"/><circle cx="581.0" cy="120.0" r="1.6"/><circle cx="588.0" cy="120.0" r="1.6"/><circle cx="595.0" cy="120.0" r="1.6"/><circle cx="602.0" cy="120.0" r="1.6"/><circle cx="609.0" cy="120.0" r="1.6"/><circle cx="616.0" cy="120.0" r="1.6"/><circle cx="623.0" cy="120.0" r="1.6"/><circle cx="882.0" cy="120.0" r="1.6"/><circle cx="154.0" cy="127.0" r="1.6"/><circle cx="161.0" cy="127.0" r="1.6"/><circle cx="168.0" cy="127.0" r="1.6"/><circle cx="175.0" cy="127.0" r="1.6"/><circle cx="182.0" cy="127.0" r="1.6"/><circle cx="189.0" cy="127.0" r="1.6"/><circle cx="196.0" cy="127.0" r="1.6"/><circle cx="203.0" cy="127.0" r="1.6"/><circle cx="210.0" cy="127.0" r="1.6"/><circle cx="217.0" cy="127.0" r="1.6"/><circle cx="224.0" cy="127.0" r="1.6"/><circle cx="231.0" cy="127.0" r="1.6"/><circle cx="238.0" cy="127.0" r="1.6"/><circle cx="245.0" cy="127.0" r="1.6"/><circle cx="252.0" cy="127.0" r="1.6"/><circle cx="259.0" cy="127.0" r="1.6"/><circle cx="266.0" cy="127.0" r="1.6"/><circle cx="273.0" cy="127.0" r="1.6"/><circle cx="280.0" cy="127.0" r="1.6"/><circle cx="287.0" cy="127.0" r="1.6"/><circle cx="294.0" cy="127.0" r="1.6"/><circle cx="301.0" cy="127.0" r="1.6"/><circle cx="308.0" cy="127.0" r="1.6"/><circle cx="581.0" cy="127.0" r="1.6"/><circle cx="588.0" cy="127.0" r="1.6"/><circle cx="595.0" cy="127.0" r="1.6"/><circle cx="777.0" cy="127.0" r="1.6"/><circle cx="784.0" cy="127.0" r="1.6"/><circle cx="868.0" cy="127.0" r="1.6"/><circle cx="875.0" cy="127.0" r="1.6"/><circle cx="882.0" cy="127.0" r="1.6"/><circle cx="896.0" cy="127.0" r="1.6"/><circle cx="154.0" cy="134.0" r="1.6"/><circle cx="161.0" cy="134.0" r="1.6"/><circle cx="168.0" cy="134.0" r="1.6"/><circle cx="175.0" cy="134.0" r="1.6"/><circle cx="182.0" cy="134.0" r="1.6"/><circle cx="189.0" cy="134.0" r="1.6"/><circle cx="196.0" cy="134.0" r="1.6"/><circle cx="203.0" cy="134.0" r="1.6"/><circle cx="210.0" cy="134.0" r="1.6"/><circle cx="217.0" cy="134.0" r="1.6"/><circle cx="224.0" cy="134.0" r="1.6"/><circle cx="231.0" cy="134.0" r="1.6"/><circle cx="238.0" cy="134.0" r="1.6"/><circle cx="245.0" cy="134.0" r="1.6"/><circle cx="252.0" cy="134.0" r="1.6"/><circle cx="259.0" cy="134.0" r="1.6"/><circle cx="266.0" cy="134.0" r="1.6"/><circle cx="273.0" cy="134.0" r="1.6"/><circle cx="280.0" cy="134.0" r="1.6"/><circle cx="287.0" cy="134.0" r="1.6"/><circle cx="294.0" cy="134.0" r="1.6"/><circle cx="301.0" cy="134.0" r="1.6"/><circle cx="476.0" cy="134.0" r="1.6"/><circle cx="483.0" cy="134.0" r="1.6"/><circle cx="490.0" cy="134.0" r="1.6"/><circle cx="497.0" cy="134.0" r="1.6"/><circle cx="504.0" cy="134.0" r="1.6"/><circle cx="511.0" cy="134.0" r="1.6"/><circle cx="518.0" cy="134.0" r="1.6"/><circle cx="525.0" cy="134.0" r="1.6"/><circle cx="532.0" cy="134.0" r="1.6"/><circle cx="539.0" cy="134.0" r="1.6"/><circle cx="581.0" cy="134.0" r="1.6"/><circle cx="749.0" cy="134.0" r="1.6"/><circle cx="756.0" cy="134.0" r="1.6"/><circle cx="763.0" cy="134.0" r="1.6"/><circle cx="770.0" cy="134.0" r="1.6"/><circle cx="777.0" cy="134.0" r="1.6"/><circle cx="784.0" cy="134.0" r="1.6"/><circle cx="791.0" cy="134.0" r="1.6"/><circle cx="798.0" cy="134.0" r="1.6"/><circle cx="805.0" cy="134.0" r="1.6"/><circle cx="812.0" cy="134.0" r="1.6"/><circle cx="819.0" cy="134.0" r="1.6"/><circle cx="826.0" cy="134.0" r="1.6"/><circle cx="833.0" cy="134.0" r="1.6"/><circle cx="840.0" cy="134.0" r="1.6"/><circle cx="847.0" cy="134.0" r="1.6"/><circle cx="854.0" cy="134.0" r="1.6"/><circle cx="861.0" cy="134.0" r="1.6"/><circle cx="868.0" cy="134.0" r="1.6"/><circle cx="875.0" cy="134.0" r="1.6"/><circle cx="882.0" cy="134.0" r="1.6"/><circle cx="889.0" cy="134.0" r="1.6"/><circle cx="896.0" cy="134.0" r="1.6"/><circle cx="161.0" cy="141.0" r="1.6"/><circle cx="168.0" cy="141.0" r="1.6"/><circle cx="175.0" cy="141.0" r="1.6"/><circle cx="182.0" cy="141.0" r="1.6"/><circle cx="189.0" cy="141.0" r="1.6"/><circle cx="196.0" cy="141.0" r="1.6"/><circle cx="203.0" cy="141.0" r="1.6"/><circle cx="210.0" cy="141.0" r="1.6"/><circle cx="217.0" cy="141.0" r="1.6"/><circle cx="224.0" cy="141.0" r="1.6"/><circle cx="231.0" cy="141.0" r="1.6"/><circle cx="238.0" cy="141.0" r="1.6"/><circle cx="245.0" cy="141.0" r="1.6"/><circle cx="252.0" cy="141.0" r="1.6"/><circle cx="259.0" cy="141.0" r="1.6"/><circle cx="266.0" cy="141.0" r="1.6"/><circle cx="273.0" cy="141.0" r="1.6"/><circle cx="280.0" cy="141.0" r="1.6"/><circle cx="287.0" cy="141.0" r="1.6"/><circle cx="476.0" cy="141.0" r="1.6"/><circle cx="483.0" cy="141.0" r="1.6"/><circle cx="490.0" cy="141.0" r="1.6"/><circle cx="497.0" cy="141.0" r="1.6"/><circle cx="504.0" cy="141.0" r="1.6"/><circle cx="511.0" cy="141.0" r="1.6"/><circle cx="518.0" cy="141.0" r="1.6"/><circle cx="525.0" cy="141.0" r="1.6"/><circle cx="532.0" cy="141.0" r="1.6"/><circle cx="539.0" cy="141.0" r="1.6"/><circle cx="546.0" cy="141.0" r="1.6"/><circle cx="560.0" cy="141.0" r="1.6"/><circle cx="567.0" cy="141.0" r="1.6"/><circle cx="623.0" cy="141.0" r="1.6"/><circle cx="630.0" cy="141.0" r="1.6"/><circle cx="637.0" cy="141.0" r="1.6"/><circle cx="644.0" cy="141.0" r="1.6"/><circle cx="651.0" cy="141.0" r="1.6"/><circle cx="728.0" cy="141.0" r="1.6"/><circle cx="735.0" cy="141.0" r="1.6"/><circle cx="742.0" cy="141.0" r="1.6"/><circle cx="749.0" cy="141.0" r="1.6"/><circle cx="756.0" cy="141.0" r="1.6"/><circle cx="763.0" cy="141.0" r="1.6"/><circle cx="770.0" cy="141.0" r="1.6"/><circle cx="777.0" cy="141.0" r="1.6"/><circle cx="784.0" cy="141.0" r="1.6"/><circle cx="791.0" cy="141.0" r="1.6"/><circle cx="798.0" cy="141.0" r="1.6"/><circle cx="805.0" cy="141.0" r="1.6"/><circle cx="812.0" cy="141.0" r="1.6"/><circle cx="819.0" cy="141.0" r="1.6"/><circle cx="826.0" cy="141.0" r="1.6"/><circle cx="833.0" cy="141.0" r="1.6"/><circle cx="840.0" cy="141.0" r="1.6"/><circle cx="847.0" cy="141.0" r="1.6"/><circle cx="854.0" cy="141.0" r="1.6"/><circle cx="861.0" cy="141.0" r="1.6"/><circle cx="868.0" cy="141.0" r="1.6"/><circle cx="875.0" cy="141.0" r="1.6"/><circle cx="882.0" cy="141.0" r="1.6"/><circle cx="889.0" cy="141.0" r="1.6"/><circle cx="168.0" cy="148.0" r="1.6"/><circle cx="175.0" cy="148.0" r="1.6"/><circle cx="182.0" cy="148.0" r="1.6"/><circle cx="189.0" cy="148.0" r="1.6"/><circle cx="196.0" cy="148.0" r="1.6"/><circle cx="203.0" cy="148.0" r="1.6"/><circle cx="210.0" cy="148.0" r="1.6"/><circle cx="217.0" cy="148.0" r="1.6"/><circle cx="224.0" cy="148.0" r="1.6"/><circle cx="231.0" cy="148.0" r="1.6"/><circle cx="238.0" cy="148.0" r="1.6"/><circle cx="245.0" cy="148.0" r="1.6"/><circle cx="252.0" cy="148.0" r="1.6"/><circle cx="259.0" cy="148.0" r="1.6"/><circle cx="266.0" cy="148.0" r="1.6"/><circle cx="273.0" cy="148.0" r="1.6"/><circle cx="280.0" cy="148.0" r="1.6"/><circle cx="287.0" cy="148.0" r="1.6"/><circle cx="476.0" cy="148.0" r="1.6"/><circle cx="483.0" cy="148.0" r="1.6"/><circle cx="609.0" cy="148.0" r="1.6"/><circle cx="616.0" cy="148.0" r="1.6"/><circle cx="623.0" cy="148.0" r="1.6"/><circle cx="630.0" cy="148.0" r="1.6"/><circle cx="637.0" cy="148.0" r="1.6"/><circle cx="644.0" cy="148.0" r="1.6"/><circle cx="651.0" cy="148.0" r="1.6"/><circle cx="693.0" cy="148.0" r="1.6"/><circle cx="700.0" cy="148.0" r="1.6"/><circle cx="707.0" cy="148.0" r="1.6"/><circle cx="714.0" cy="148.0" r="1.6"/><circle cx="721.0" cy="148.0" r="1.6"/><circle cx="728.0" cy="148.0" r="1.6"/><circle cx="735.0" cy="148.0" r="1.6"/><circle cx="742.0" cy="148.0" r="1.6"/><circle cx="749.0" cy="148.0" r="1.6"/><circle cx="756.0" cy="148.0" r="1.6"/><circle cx="763.0" cy="148.0" r="1.6"/><circle cx="770.0" cy="148.0" r="1.6"/><circle cx="777.0" cy="148.0" r="1.6"/><circle cx="784.0" cy="148.0" r="1.6"/><circle cx="791.0" cy="148.0" r="1.6"/><circle cx="798.0" cy="148.0" r="1.6"/><circle cx="805.0" cy="148.0" r="1.6"/><circle cx="812.0" cy="148.0" r="1.6"/><circle cx="819.0" cy="148.0" r="1.6"/><circle cx="826.0" cy="148.0" r="1.6"/><circle cx="833.0" cy="148.0" r="1.6"/><circle cx="840.0" cy="148.0" r="1.6"/><circle cx="847.0" cy="148.0" r="1.6"/><circle cx="854.0" cy="148.0" r="1.6"/><circle cx="861.0" cy="148.0" r="1.6"/><circle cx="868.0" cy="148.0" r="1.6"/><circle cx="875.0" cy="148.0" r="1.6"/><circle cx="882.0" cy="148.0" r="1.6"/><circle cx="168.0" cy="155.0" r="1.6"/><circle cx="175.0" cy="155.0" r="1.6"/><circle cx="182.0" cy="155.0" r="1.6"/><circle cx="189.0" cy="155.0" r="1.6"/><circle cx="196.0" cy="155.0" r="1.6"/><circle cx="203.0" cy="155.0" r="1.6"/><circle cx="210.0" cy="155.0" r="1.6"/><circle cx="217.0" cy="155.0" r="1.6"/><circle cx="224.0" cy="155.0" r="1.6"/><circle cx="231.0" cy="155.0" r="1.6"/><circle cx="238.0" cy="155.0" r="1.6"/><circle cx="245.0" cy="155.0" r="1.6"/><circle cx="252.0" cy="155.0" r="1.6"/><circle cx="259.0" cy="155.0" r="1.6"/><circle cx="266.0" cy="155.0" r="1.6"/><circle cx="273.0" cy="155.0" r="1.6"/><circle cx="280.0" cy="155.0" r="1.6"/><circle cx="602.0" cy="155.0" r="1.6"/><circle cx="609.0" cy="155.0" r="1.6"/><circle cx="616.0" cy="155.0" r="1.6"/><circle cx="623.0" cy="155.0" r="1.6"/><circle cx="630.0" cy="155.0" r="1.6"/><circle cx="637.0" cy="155.0" r="1.6"/><circle cx="644.0" cy="155.0" r="1.6"/><circle cx="651.0" cy="155.0" r="1.6"/><circle cx="658.0" cy="155.0" r="1.6"/><circle cx="693.0" cy="155.0" r="1.6"/><circle cx="700.0" cy="155.0" r="1.6"/><circle cx="707.0" cy="155.0" r="1.6"/><circle cx="714.0" cy="155.0" r="1.6"/><circle cx="721.0" cy="155.0" r="1.6"/><circle cx="728.0" cy="155.0" r="1.6"/><circle cx="735.0" cy="155.0" r="1.6"/><circle cx="742.0" cy="155.0" r="1.6"/><circle cx="749.0" cy="155.0" r="1.6"/><circle cx="756.0" cy="155.0" r="1.6"/><circle cx="763.0" cy="155.0" r="1.6"/><circle cx="770.0" cy="155.0" r="1.6"/><circle cx="777.0" cy="155.0" r="1.6"/><circle cx="784.0" cy="155.0" r="1.6"/><circle cx="791.0" cy="155.0" r="1.6"/><circle cx="798.0" cy="155.0" r="1.6"/><circle cx="805.0" cy="155.0" r="1.6"/><circle cx="812.0" cy="155.0" r="1.6"/><circle cx="819.0" cy="155.0" r="1.6"/><circle cx="826.0" cy="155.0" r="1.6"/><circle cx="833.0" cy="155.0" r="1.6"/><circle cx="840.0" cy="155.0" r="1.6"/><circle cx="847.0" cy="155.0" r="1.6"/><circle cx="854.0" cy="155.0" r="1.6"/><circle cx="861.0" cy="155.0" r="1.6"/><circle cx="868.0" cy="155.0" r="1.6"/><circle cx="875.0" cy="155.0" r="1.6"/><circle cx="182.0" cy="162.0" r="1.6"/><circle cx="189.0" cy="162.0" r="1.6"/><circle cx="196.0" cy="162.0" r="1.6"/><circle cx="203.0" cy="162.0" r="1.6"/><circle cx="210.0" cy="162.0" r="1.6"/><circle cx="217.0" cy="162.0" r="1.6"/><circle cx="224.0" cy="162.0" r="1.6"/><circle cx="231.0" cy="162.0" r="1.6"/><circle cx="238.0" cy="162.0" r="1.6"/><circle cx="245.0" cy="162.0" r="1.6"/><circle cx="252.0" cy="162.0" r="1.6"/><circle cx="259.0" cy="162.0" r="1.6"/><circle cx="266.0" cy="162.0" r="1.6"/><circle cx="273.0" cy="162.0" r="1.6"/><circle cx="280.0" cy="162.0" r="1.6"/><circle cx="497.0" cy="162.0" r="1.6"/><circle cx="504.0" cy="162.0" r="1.6"/><circle cx="511.0" cy="162.0" r="1.6"/><circle cx="518.0" cy="162.0" r="1.6"/><circle cx="525.0" cy="162.0" r="1.6"/><circle cx="532.0" cy="162.0" r="1.6"/><circle cx="539.0" cy="162.0" r="1.6"/><circle cx="546.0" cy="162.0" r="1.6"/><circle cx="553.0" cy="162.0" r="1.6"/><circle cx="560.0" cy="162.0" r="1.6"/><circle cx="567.0" cy="162.0" r="1.6"/><circle cx="574.0" cy="162.0" r="1.6"/><circle cx="581.0" cy="162.0" r="1.6"/><circle cx="588.0" cy="162.0" r="1.6"/><circle cx="602.0" cy="162.0" r="1.6"/><circle cx="609.0" cy="162.0" r="1.6"/><circle cx="616.0" cy="162.0" r="1.6"/><circle cx="623.0" cy="162.0" r="1.6"/><circle cx="630.0" cy="162.0" r="1.6"/><circle cx="637.0" cy="162.0" r="1.6"/><circle cx="644.0" cy="162.0" r="1.6"/><circle cx="651.0" cy="162.0" r="1.6"/><circle cx="658.0" cy="162.0" r="1.6"/><circle cx="693.0" cy="162.0" r="1.6"/><circle cx="700.0" cy="162.0" r="1.6"/><circle cx="707.0" cy="162.0" r="1.6"/><circle cx="714.0" cy="162.0" r="1.6"/><circle cx="721.0" cy="162.0" r="1.6"/><circle cx="728.0" cy="162.0" r="1.6"/><circle cx="735.0" cy="162.0" r="1.6"/><circle cx="742.0" cy="162.0" r="1.6"/><circle cx="749.0" cy="162.0" r="1.6"/><circle cx="756.0" cy="162.0" r="1.6"/><circle cx="763.0" cy="162.0" r="1.6"/><circle cx="770.0" cy="162.0" r="1.6"/><circle cx="777.0" cy="162.0" r="1.6"/><circle cx="784.0" cy="162.0" r="1.6"/><circle cx="791.0" cy="162.0" r="1.6"/><circle cx="798.0" cy="162.0" r="1.6"/><circle cx="805.0" cy="162.0" r="1.6"/><circle cx="812.0" cy="162.0" r="1.6"/><circle cx="819.0" cy="162.0" r="1.6"/><circle cx="826.0" cy="162.0" r="1.6"/><circle cx="833.0" cy="162.0" r="1.6"/><circle cx="840.0" cy="162.0" r="1.6"/><circle cx="847.0" cy="162.0" r="1.6"/><circle cx="854.0" cy="162.0" r="1.6"/><circle cx="196.0" cy="169.0" r="1.6"/><circle cx="203.0" cy="169.0" r="1.6"/><circle cx="210.0" cy="169.0" r="1.6"/><circle cx="217.0" cy="169.0" r="1.6"/><circle cx="224.0" cy="169.0" r="1.6"/><circle cx="231.0" cy="169.0" r="1.6"/><circle cx="238.0" cy="169.0" r="1.6"/><circle cx="245.0" cy="169.0" r="1.6"/><circle cx="252.0" cy="169.0" r="1.6"/><circle cx="259.0" cy="169.0" r="1.6"/><circle cx="266.0" cy="169.0" r="1.6"/><circle cx="273.0" cy="169.0" r="1.6"/><circle cx="476.0" cy="169.0" r="1.6"/><circle cx="483.0" cy="169.0" r="1.6"/><circle cx="490.0" cy="169.0" r="1.6"/><circle cx="497.0" cy="169.0" r="1.6"/><circle cx="504.0" cy="169.0" r="1.6"/><circle cx="511.0" cy="169.0" r="1.6"/><circle cx="518.0" cy="169.0" r="1.6"/><circle cx="525.0" cy="169.0" r="1.6"/><circle cx="532.0" cy="169.0" r="1.6"/><circle cx="539.0" cy="169.0" r="1.6"/><circle cx="546.0" cy="169.0" r="1.6"/><circle cx="553.0" cy="169.0" r="1.6"/><circle cx="560.0" cy="169.0" r="1.6"/><circle cx="567.0" cy="169.0" r="1.6"/><circle cx="574.0" cy="169.0" r="1.6"/><circle cx="581.0" cy="169.0" r="1.6"/><circle cx="588.0" cy="169.0" r="1.6"/><circle cx="602.0" cy="169.0" r="1.6"/><circle cx="609.0" cy="169.0" r="1.6"/><circle cx="616.0" cy="169.0" r="1.6"/><circle cx="623.0" cy="169.0" r="1.6"/><circle cx="630.0" cy="169.0" r="1.6"/><circle cx="637.0" cy="169.0" r="1.6"/><circle cx="644.0" cy="169.0" r="1.6"/><circle cx="651.0" cy="169.0" r="1.6"/><circle cx="658.0" cy="169.0" r="1.6"/><circle cx="693.0" cy="169.0" r="1.6"/><circle cx="700.0" cy="169.0" r="1.6"/><circle cx="707.0" cy="169.0" r="1.6"/><circle cx="714.0" cy="169.0" r="1.6"/><circle cx="721.0" cy="169.0" r="1.6"/><circle cx="728.0" cy="169.0" r="1.6"/><circle cx="735.0" cy="169.0" r="1.6"/><circle cx="742.0" cy="169.0" r="1.6"/><circle cx="749.0" cy="169.0" r="1.6"/><circle cx="756.0" cy="169.0" r="1.6"/><circle cx="763.0" cy="169.0" r="1.6"/><circle cx="770.0" cy="169.0" r="1.6"/><circle cx="777.0" cy="169.0" r="1.6"/><circle cx="784.0" cy="169.0" r="1.6"/><circle cx="791.0" cy="169.0" r="1.6"/><circle cx="798.0" cy="169.0" r="1.6"/><circle cx="805.0" cy="169.0" r="1.6"/><circle cx="812.0" cy="169.0" r="1.6"/><circle cx="819.0" cy="169.0" r="1.6"/><circle cx="826.0" cy="169.0" r="1.6"/><circle cx="833.0" cy="169.0" r="1.6"/><circle cx="840.0" cy="169.0" r="1.6"/><circle cx="203.0" cy="176.0" r="1.6"/><circle cx="210.0" cy="176.0" r="1.6"/><circle cx="217.0" cy="176.0" r="1.6"/><circle cx="224.0" cy="176.0" r="1.6"/><circle cx="231.0" cy="176.0" r="1.6"/><circle cx="238.0" cy="176.0" r="1.6"/><circle cx="245.0" cy="176.0" r="1.6"/><circle cx="252.0" cy="176.0" r="1.6"/><circle cx="259.0" cy="176.0" r="1.6"/><circle cx="266.0" cy="176.0" r="1.6"/><circle cx="273.0" cy="176.0" r="1.6"/><circle cx="469.0" cy="176.0" r="1.6"/><circle cx="476.0" cy="176.0" r="1.6"/><circle cx="483.0" cy="176.0" r="1.6"/><circle cx="490.0" cy="176.0" r="1.6"/><circle cx="497.0" cy="176.0" r="1.6"/><circle cx="504.0" cy="176.0" r="1.6"/><circle cx="511.0" cy="176.0" r="1.6"/><circle cx="518.0" cy="176.0" r="1.6"/><circle cx="525.0" cy="176.0" r="1.6"/><circle cx="532.0" cy="176.0" r="1.6"/><circle cx="539.0" cy="176.0" r="1.6"/><circle cx="546.0" cy="176.0" r="1.6"/><circle cx="553.0" cy="176.0" r="1.6"/><circle cx="560.0" cy="176.0" r="1.6"/><circle cx="567.0" cy="176.0" r="1.6"/><circle cx="574.0" cy="176.0" r="1.6"/><circle cx="581.0" cy="176.0" r="1.6"/><circle cx="588.0" cy="176.0" r="1.6"/><circle cx="595.0" cy="176.0" r="1.6"/><circle cx="616.0" cy="176.0" r="1.6"/><circle cx="623.0" cy="176.0" r="1.6"/><circle cx="630.0" cy="176.0" r="1.6"/><circle cx="637.0" cy="176.0" r="1.6"/><circle cx="644.0" cy="176.0" r="1.6"/><circle cx="651.0" cy="176.0" r="1.6"/><circle cx="693.0" cy="176.0" r="1.6"/><circle cx="700.0" cy="176.0" r="1.6"/><circle cx="707.0" cy="176.0" r="1.6"/><circle cx="714.0" cy="176.0" r="1.6"/><circle cx="721.0" cy="176.0" r="1.6"/><circle cx="728.0" cy="176.0" r="1.6"/><circle cx="735.0" cy="176.0" r="1.6"/><circle cx="742.0" cy="176.0" r="1.6"/><circle cx="749.0" cy="176.0" r="1.6"/><circle cx="756.0" cy="176.0" r="1.6"/><circle cx="763.0" cy="176.0" r="1.6"/><circle cx="770.0" cy="176.0" r="1.6"/><circle cx="777.0" cy="176.0" r="1.6"/><circle cx="784.0" cy="176.0" r="1.6"/><circle cx="791.0" cy="176.0" r="1.6"/><circle cx="798.0" cy="176.0" r="1.6"/><circle cx="805.0" cy="176.0" r="1.6"/><circle cx="812.0" cy="176.0" r="1.6"/><circle cx="819.0" cy="176.0" r="1.6"/><circle cx="826.0" cy="176.0" r="1.6"/><circle cx="833.0" cy="176.0" r="1.6"/><circle cx="203.0" cy="183.0" r="1.6"/><circle cx="210.0" cy="183.0" r="1.6"/><circle cx="217.0" cy="183.0" r="1.6"/><circle cx="224.0" cy="183.0" r="1.6"/><circle cx="231.0" cy="183.0" r="1.6"/><circle cx="238.0" cy="183.0" r="1.6"/><circle cx="245.0" cy="183.0" r="1.6"/><circle cx="252.0" cy="183.0" r="1.6"/><circle cx="259.0" cy="183.0" r="1.6"/><circle cx="266.0" cy="183.0" r="1.6"/><circle cx="462.0" cy="183.0" r="1.6"/><circle cx="469.0" cy="183.0" r="1.6"/><circle cx="476.0" cy="183.0" r="1.6"/><circle cx="483.0" cy="183.0" r="1.6"/><circle cx="490.0" cy="183.0" r="1.6"/><circle cx="497.0" cy="183.0" r="1.6"/><circle cx="504.0" cy="183.0" r="1.6"/><circle cx="511.0" cy="183.0" r="1.6"/><circle cx="518.0" cy="183.0" r="1.6"/><circle cx="525.0" cy="183.0" r="1.6"/><circle cx="532.0" cy="183.0" r="1.6"/><circle cx="539.0" cy="183.0" r="1.6"/><circle cx="546.0" cy="183.0" r="1.6"/><circle cx="553.0" cy="183.0" r="1.6"/><circle cx="560.0" cy="183.0" r="1.6"/><circle cx="567.0" cy="183.0" r="1.6"/><circle cx="574.0" cy="183.0" r="1.6"/><circle cx="581.0" cy="183.0" r="1.6"/><circle cx="588.0" cy="183.0" r="1.6"/><circle cx="595.0" cy="183.0" r="1.6"/><circle cx="602.0" cy="183.0" r="1.6"/><circle cx="693.0" cy="183.0" r="1.6"/><circle cx="700.0" cy="183.0" r="1.6"/><circle cx="707.0" cy="183.0" r="1.6"/><circle cx="714.0" cy="183.0" r="1.6"/><circle cx="721.0" cy="183.0" r="1.6"/><circle cx="728.0" cy="183.0" r="1.6"/><circle cx="735.0" cy="183.0" r="1.6"/><circle cx="742.0" cy="183.0" r="1.6"/><circle cx="749.0" cy="183.0" r="1.6"/><circle cx="756.0" cy="183.0" r="1.6"/><circle cx="763.0" cy="183.0" r="1.6"/><circle cx="770.0" cy="183.0" r="1.6"/><circle cx="777.0" cy="183.0" r="1.6"/><circle cx="784.0" cy="183.0" r="1.6"/><circle cx="791.0" cy="183.0" r="1.6"/><circle cx="798.0" cy="183.0" r="1.6"/><circle cx="805.0" cy="183.0" r="1.6"/><circle cx="812.0" cy="183.0" r="1.6"/><circle cx="819.0" cy="183.0" r="1.6"/><circle cx="826.0" cy="183.0" r="1.6"/><circle cx="833.0" cy="183.0" r="1.6"/><circle cx="210.0" cy="190.0" r="1.6"/><circle cx="217.0" cy="190.0" r="1.6"/><circle cx="224.0" cy="190.0" r="1.6"/><circle cx="231.0" cy="190.0" r="1.6"/><circle cx="238.0" cy="190.0" r="1.6"/><circle cx="245.0" cy="190.0" r="1.6"/><circle cx="252.0" cy="190.0" r="1.6"/><circle cx="259.0" cy="190.0" r="1.6"/><circle cx="455.0" cy="190.0" r="1.6"/><circle cx="462.0" cy="190.0" r="1.6"/><circle cx="469.0" cy="190.0" r="1.6"/><circle cx="476.0" cy="190.0" r="1.6"/><circle cx="483.0" cy="190.0" r="1.6"/><circle cx="490.0" cy="190.0" r="1.6"/><circle cx="497.0" cy="190.0" r="1.6"/><circle cx="504.0" cy="190.0" r="1.6"/><circle cx="511.0" cy="190.0" r="1.6"/><circle cx="518.0" cy="190.0" r="1.6"/><circle cx="525.0" cy="190.0" r="1.6"/><circle cx="532.0" cy="190.0" r="1.6"/><circle cx="539.0" cy="190.0" r="1.6"/><circle cx="546.0" cy="190.0" r="1.6"/><circle cx="553.0" cy="190.0" r="1.6"/><circle cx="560.0" cy="190.0" r="1.6"/><circle cx="567.0" cy="190.0" r="1.6"/><circle cx="574.0" cy="190.0" r="1.6"/><circle cx="581.0" cy="190.0" r="1.6"/><circle cx="588.0" cy="190.0" r="1.6"/><circle cx="595.0" cy="190.0" r="1.6"/><circle cx="602.0" cy="190.0" r="1.6"/><circle cx="693.0" cy="190.0" r="1.6"/><circle cx="700.0" cy="190.0" r="1.6"/><circle cx="707.0" cy="190.0" r="1.6"/><circle cx="714.0" cy="190.0" r="1.6"/><circle cx="749.0" cy="190.0" r="1.6"/><circle cx="756.0" cy="190.0" r="1.6"/><circle cx="763.0" cy="190.0" r="1.6"/><circle cx="770.0" cy="190.0" r="1.6"/><circle cx="777.0" cy="190.0" r="1.6"/><circle cx="784.0" cy="190.0" r="1.6"/><circle cx="791.0" cy="190.0" r="1.6"/><circle cx="798.0" cy="190.0" r="1.6"/><circle cx="805.0" cy="190.0" r="1.6"/><circle cx="812.0" cy="190.0" r="1.6"/><circle cx="819.0" cy="190.0" r="1.6"/><circle cx="826.0" cy="190.0" r="1.6"/><circle cx="217.0" cy="197.0" r="1.6"/><circle cx="224.0" cy="197.0" r="1.6"/><circle cx="231.0" cy="197.0" r="1.6"/><circle cx="238.0" cy="197.0" r="1.6"/><circle cx="245.0" cy="197.0" r="1.6"/><circle cx="252.0" cy="197.0" r="1.6"/><circle cx="455.0" cy="197.0" r="1.6"/><circle cx="462.0" cy="197.0" r="1.6"/><circle cx="469.0" cy="197.0" r="1.6"/><circle cx="476.0" cy="197.0" r="1.6"/><circle cx="483.0" cy="197.0" r="1.6"/><circle cx="490.0" cy="197.0" r="1.6"/><circle cx="497.0" cy="197.0" r="1.6"/><circle cx="504.0" cy="197.0" r="1.6"/><circle cx="511.0" cy="197.0" r="1.6"/><circle cx="518.0" cy="197.0" r="1.6"/><circle cx="525.0" cy="197.0" r="1.6"/><circle cx="532.0" cy="197.0" r="1.6"/><circle cx="539.0" cy="197.0" r="1.6"/><circle cx="546.0" cy="197.0" r="1.6"/><circle cx="553.0" cy="197.0" r="1.6"/><circle cx="560.0" cy="197.0" r="1.6"/><circle cx="567.0" cy="197.0" r="1.6"/><circle cx="574.0" cy="197.0" r="1.6"/><circle cx="581.0" cy="197.0" r="1.6"/><circle cx="588.0" cy="197.0" r="1.6"/><circle cx="595.0" cy="197.0" r="1.6"/><circle cx="602.0" cy="197.0" r="1.6"/><circle cx="609.0" cy="197.0" r="1.6"/><circle cx="700.0" cy="197.0" r="1.6"/><circle cx="756.0" cy="197.0" r="1.6"/><circle cx="763.0" cy="197.0" r="1.6"/><circle cx="770.0" cy="197.0" r="1.6"/><circle cx="777.0" cy="197.0" r="1.6"/><circle cx="784.0" cy="197.0" r="1.6"/><circle cx="791.0" cy="197.0" r="1.6"/><circle cx="798.0" cy="197.0" r="1.6"/><circle cx="231.0" cy="204.0" r="1.6"/><circle cx="252.0" cy="204.0" r="1.6"/><circle cx="455.0" cy="204.0" r="1.6"/><circle cx="462.0" cy="204.0" r="1.6"/><circle cx="469.0" cy="204.0" r="1.6"/><circle cx="476.0" cy="204.0" r="1.6"/><circle cx="483.0" cy="204.0" r="1.6"/><circle cx="490.0" cy="204.0" r="1.6"/><circle cx="497.0" cy="204.0" r="1.6"/><circle cx="504.0" cy="204.0" r="1.6"/><circle cx="511.0" cy="204.0" r="1.6"/><circle cx="518.0" cy="204.0" r="1.6"/><circle cx="525.0" cy="204.0" r="1.6"/><circle cx="532.0" cy="204.0" r="1.6"/><circle cx="539.0" cy="204.0" r="1.6"/><circle cx="546.0" cy="204.0" r="1.6"/><circle cx="553.0" cy="204.0" r="1.6"/><circle cx="560.0" cy="204.0" r="1.6"/><circle cx="567.0" cy="204.0" r="1.6"/><circle cx="574.0" cy="204.0" r="1.6"/><circle cx="581.0" cy="204.0" r="1.6"/><circle cx="588.0" cy="204.0" r="1.6"/><circle cx="595.0" cy="204.0" r="1.6"/><circle cx="602.0" cy="204.0" r="1.6"/><circle cx="609.0" cy="204.0" r="1.6"/><circle cx="756.0" cy="204.0" r="1.6"/><circle cx="763.0" cy="204.0" r="1.6"/><circle cx="770.0" cy="204.0" r="1.6"/><circle cx="777.0" cy="204.0" r="1.6"/><circle cx="784.0" cy="204.0" r="1.6"/><circle cx="791.0" cy="204.0" r="1.6"/><circle cx="798.0" cy="204.0" r="1.6"/><circle cx="840.0" cy="204.0" r="1.6"/><circle cx="252.0" cy="211.0" r="1.6"/><circle cx="259.0" cy="211.0" r="1.6"/><circle cx="266.0" cy="211.0" r="1.6"/><circle cx="462.0" cy="211.0" r="1.6"/><circle cx="469.0" cy="211.0" r="1.6"/><circle cx="476.0" cy="211.0" r="1.6"/><circle cx="483.0" cy="211.0" r="1.6"/><circle cx="490.0" cy="211.0" r="1.6"/><circle cx="497.0" cy="211.0" r="1.6"/><circle cx="504.0" cy="211.0" r="1.6"/><circle cx="511.0" cy="211.0" r="1.6"/><circle cx="518.0" cy="211.0" r="1.6"/><circle cx="525.0" cy="211.0" r="1.6"/><circle cx="532.0" cy="211.0" r="1.6"/><circle cx="539.0" cy="211.0" r="1.6"/><circle cx="546.0" cy="211.0" r="1.6"/><circle cx="553.0" cy="211.0" r="1.6"/><circle cx="560.0" cy="211.0" r="1.6"/><circle cx="567.0" cy="211.0" r="1.6"/><circle cx="574.0" cy="211.0" r="1.6"/><circle cx="581.0" cy="211.0" r="1.6"/><circle cx="588.0" cy="211.0" r="1.6"/><circle cx="595.0" cy="211.0" r="1.6"/><circle cx="602.0" cy="211.0" r="1.6"/><circle cx="609.0" cy="211.0" r="1.6"/><circle cx="616.0" cy="211.0" r="1.6"/><circle cx="623.0" cy="211.0" r="1.6"/><circle cx="763.0" cy="211.0" r="1.6"/><circle cx="770.0" cy="211.0" r="1.6"/><circle cx="777.0" cy="211.0" r="1.6"/><circle cx="784.0" cy="211.0" r="1.6"/><circle cx="791.0" cy="211.0" r="1.6"/><circle cx="833.0" cy="211.0" r="1.6"/><circle cx="840.0" cy="211.0" r="1.6"/><circle cx="847.0" cy="211.0" r="1.6"/><circle cx="266.0" cy="218.0" r="1.6"/><circle cx="273.0" cy="218.0" r="1.6"/><circle cx="287.0" cy="218.0" r="1.6"/><circle cx="294.0" cy="218.0" r="1.6"/><circle cx="301.0" cy="218.0" r="1.6"/><circle cx="308.0" cy="218.0" r="1.6"/><circle cx="462.0" cy="218.0" r="1.6"/><circle cx="469.0" cy="218.0" r="1.6"/><circle cx="476.0" cy="218.0" r="1.6"/><circle cx="483.0" cy="218.0" r="1.6"/><circle cx="490.0" cy="218.0" r="1.6"/><circle cx="497.0" cy="218.0" r="1.6"/><circle cx="504.0" cy="218.0" r="1.6"/><circle cx="511.0" cy="218.0" r="1.6"/><circle cx="518.0" cy="218.0" r="1.6"/><circle cx="525.0" cy="218.0" r="1.6"/><circle cx="532.0" cy="218.0" r="1.6"/><circle cx="539.0" cy="218.0" r="1.6"/><circle cx="546.0" cy="218.0" r="1.6"/><circle cx="553.0" cy="218.0" r="1.6"/><circle cx="560.0" cy="218.0" r="1.6"/><circle cx="567.0" cy="218.0" r="1.6"/><circle cx="574.0" cy="218.0" r="1.6"/><circle cx="581.0" cy="218.0" r="1.6"/><circle cx="588.0" cy="218.0" r="1.6"/><circle cx="595.0" cy="218.0" r="1.6"/><circle cx="602.0" cy="218.0" r="1.6"/><circle cx="609.0" cy="218.0" r="1.6"/><circle cx="616.0" cy="218.0" r="1.6"/><circle cx="623.0" cy="218.0" r="1.6"/><circle cx="630.0" cy="218.0" r="1.6"/><circle cx="637.0" cy="218.0" r="1.6"/><circle cx="770.0" cy="218.0" r="1.6"/><circle cx="777.0" cy="218.0" r="1.6"/><circle cx="784.0" cy="218.0" r="1.6"/><circle cx="791.0" cy="218.0" r="1.6"/><circle cx="833.0" cy="218.0" r="1.6"/><circle cx="840.0" cy="218.0" r="1.6"/><circle cx="847.0" cy="218.0" r="1.6"/><circle cx="273.0" cy="225.0" r="1.6"/><circle cx="280.0" cy="225.0" r="1.6"/><circle cx="287.0" cy="225.0" r="1.6"/><circle cx="294.0" cy="225.0" r="1.6"/><circle cx="301.0" cy="225.0" r="1.6"/><circle cx="308.0" cy="225.0" r="1.6"/><circle cx="315.0" cy="225.0" r="1.6"/><circle cx="322.0" cy="225.0" r="1.6"/><circle cx="469.0" cy="225.0" r="1.6"/><circle cx="476.0" cy="225.0" r="1.6"/><circle cx="483.0" cy="225.0" r="1.6"/><circle cx="490.0" cy="225.0" r="1.6"/><circle cx="497.0" cy="225.0" r="1.6"/><circle cx="504.0" cy="225.0" r="1.6"/><circle cx="511.0" cy="225.0" r="1.6"/><circle cx="518.0" cy="225.0" r="1.6"/><circle cx="525.0" cy="225.0" r="1.6"/><circle cx="532.0" cy="225.0" r="1.6"/><circle cx="539.0" cy="225.0" r="1.6"/><circle cx="546.0" cy="225.0" r="1.6"/><circle cx="553.0" cy="225.0" r="1.6"/><circle cx="560.0" cy="225.0" r="1.6"/><circle cx="567.0" cy="225.0" r="1.6"/><circle cx="574.0" cy="225.0" r="1.6"/><circle cx="581.0" cy="225.0" r="1.6"/><circle cx="588.0" cy="225.0" r="1.6"/><circle cx="595.0" cy="225.0" r="1.6"/><circle cx="602.0" cy="225.0" r="1.6"/><circle cx="609.0" cy="225.0" r="1.6"/><circle cx="616.0" cy="225.0" r="1.6"/><circle cx="623.0" cy="225.0" r="1.6"/><circle cx="630.0" cy="225.0" r="1.6"/><circle cx="637.0" cy="225.0" r="1.6"/><circle cx="770.0" cy="225.0" r="1.6"/><circle cx="777.0" cy="225.0" r="1.6"/><circle cx="784.0" cy="225.0" r="1.6"/><circle cx="833.0" cy="225.0" r="1.6"/><circle cx="840.0" cy="225.0" r="1.6"/><circle cx="287.0" cy="232.0" r="1.6"/><circle cx="294.0" cy="232.0" r="1.6"/><circle cx="301.0" cy="232.0" r="1.6"/><circle cx="308.0" cy="232.0" r="1.6"/><circle cx="315.0" cy="232.0" r="1.6"/><circle cx="322.0" cy="232.0" r="1.6"/><circle cx="329.0" cy="232.0" r="1.6"/><circle cx="336.0" cy="232.0" r="1.6"/><circle cx="343.0" cy="232.0" r="1.6"/><circle cx="476.0" cy="232.0" r="1.6"/><circle cx="483.0" cy="232.0" r="1.6"/><circle cx="490.0" cy="232.0" r="1.6"/><circle cx="497.0" cy="232.0" r="1.6"/><circle cx="504.0" cy="232.0" r="1.6"/><circle cx="511.0" cy="232.0" r="1.6"/><circle cx="518.0" cy="232.0" r="1.6"/><circle cx="525.0" cy="232.0" r="1.6"/><circle cx="532.0" cy="232.0" r="1.6"/><circle cx="539.0" cy="232.0" r="1.6"/><circle cx="546.0" cy="232.0" r="1.6"/><circle cx="553.0" cy="232.0" r="1.6"/><circle cx="560.0" cy="232.0" r="1.6"/><circle cx="567.0" cy="232.0" r="1.6"/><circle cx="574.0" cy="232.0" r="1.6"/><circle cx="581.0" cy="232.0" r="1.6"/><circle cx="588.0" cy="232.0" r="1.6"/><circle cx="595.0" cy="232.0" r="1.6"/><circle cx="602.0" cy="232.0" r="1.6"/><circle cx="609.0" cy="232.0" r="1.6"/><circle cx="616.0" cy="232.0" r="1.6"/><circle cx="623.0" cy="232.0" r="1.6"/><circle cx="630.0" cy="232.0" r="1.6"/><circle cx="637.0" cy="232.0" r="1.6"/><circle cx="777.0" cy="232.0" r="1.6"/><circle cx="833.0" cy="232.0" r="1.6"/><circle cx="280.0" cy="239.0" r="1.6"/><circle cx="287.0" cy="239.0" r="1.6"/><circle cx="294.0" cy="239.0" r="1.6"/><circle cx="301.0" cy="239.0" r="1.6"/><circle cx="308.0" cy="239.0" r="1.6"/><circle cx="315.0" cy="239.0" r="1.6"/><circle cx="322.0" cy="239.0" r="1.6"/><circle cx="329.0" cy="239.0" r="1.6"/><circle cx="336.0" cy="239.0" r="1.6"/><circle cx="343.0" cy="239.0" r="1.6"/><circle cx="350.0" cy="239.0" r="1.6"/><circle cx="357.0" cy="239.0" r="1.6"/><circle cx="483.0" cy="239.0" r="1.6"/><circle cx="490.0" cy="239.0" r="1.6"/><circle cx="497.0" cy="239.0" r="1.6"/><circle cx="504.0" cy="239.0" r="1.6"/><circle cx="511.0" cy="239.0" r="1.6"/><circle cx="518.0" cy="239.0" r="1.6"/><circle cx="525.0" cy="239.0" r="1.6"/><circle cx="532.0" cy="239.0" r="1.6"/><circle cx="539.0" cy="239.0" r="1.6"/><circle cx="546.0" cy="239.0" r="1.6"/><circle cx="553.0" cy="239.0" r="1.6"/><circle cx="560.0" cy="239.0" r="1.6"/><circle cx="567.0" cy="239.0" r="1.6"/><circle cx="574.0" cy="239.0" r="1.6"/><circle cx="581.0" cy="239.0" r="1.6"/><circle cx="588.0" cy="239.0" r="1.6"/><circle cx="595.0" cy="239.0" r="1.6"/><circle cx="602.0" cy="239.0" r="1.6"/><circle cx="609.0" cy="239.0" r="1.6"/><circle cx="616.0" cy="239.0" r="1.6"/><circle cx="623.0" cy="239.0" r="1.6"/><circle cx="630.0" cy="239.0" r="1.6"/><circle cx="637.0" cy="239.0" r="1.6"/><circle cx="280.0" cy="246.0" r="1.6"/><circle cx="287.0" cy="246.0" r="1.6"/><circle cx="294.0" cy="246.0" r="1.6"/><circle cx="301.0" cy="246.0" r="1.6"/><circle cx="308.0" cy="246.0" r="1.6"/><circle cx="315.0" cy="246.0" r="1.6"/><circle cx="322.0" cy="246.0" r="1.6"/><circle cx="329.0" cy="246.0" r="1.6"/><circle cx="336.0" cy="246.0" r="1.6"/><circle cx="343.0" cy="246.0" r="1.6"/><circle cx="350.0" cy="246.0" r="1.6"/><circle cx="357.0" cy="246.0" r="1.6"/><circle cx="364.0" cy="246.0" r="1.6"/><circle cx="511.0" cy="246.0" r="1.6"/><circle cx="518.0" cy="246.0" r="1.6"/><circle cx="525.0" cy="246.0" r="1.6"/><circle cx="532.0" cy="246.0" r="1.6"/><circle cx="539.0" cy="246.0" r="1.6"/><circle cx="546.0" cy="246.0" r="1.6"/><circle cx="553.0" cy="246.0" r="1.6"/><circle cx="560.0" cy="246.0" r="1.6"/><circle cx="567.0" cy="246.0" r="1.6"/><circle cx="574.0" cy="246.0" r="1.6"/><circle cx="581.0" cy="246.0" r="1.6"/><circle cx="588.0" cy="246.0" r="1.6"/><circle cx="595.0" cy="246.0" r="1.6"/><circle cx="602.0" cy="246.0" r="1.6"/><circle cx="609.0" cy="246.0" r="1.6"/><circle cx="616.0" cy="246.0" r="1.6"/><circle cx="623.0" cy="246.0" r="1.6"/><circle cx="280.0" cy="253.0" r="1.6"/><circle cx="287.0" cy="253.0" r="1.6"/><circle cx="294.0" cy="253.0" r="1.6"/><circle cx="301.0" cy="253.0" r="1.6"/><circle cx="308.0" cy="253.0" r="1.6"/><circle cx="315.0" cy="253.0" r="1.6"/><circle cx="322.0" cy="253.0" r="1.6"/><circle cx="329.0" cy="253.0" r="1.6"/><circle cx="336.0" cy="253.0" r="1.6"/><circle cx="343.0" cy="253.0" r="1.6"/><circle cx="350.0" cy="253.0" r="1.6"/><circle cx="357.0" cy="253.0" r="1.6"/><circle cx="364.0" cy="253.0" r="1.6"/><circle cx="371.0" cy="253.0" r="1.6"/><circle cx="378.0" cy="253.0" r="1.6"/><circle cx="525.0" cy="253.0" r="1.6"/><circle cx="532.0" cy="253.0" r="1.6"/><circle cx="539.0" cy="253.0" r="1.6"/><circle cx="546.0" cy="253.0" r="1.6"/><circle cx="553.0" cy="253.0" r="1.6"/><circle cx="560.0" cy="253.0" r="1.6"/><circle cx="567.0" cy="253.0" r="1.6"/><circle cx="574.0" cy="253.0" r="1.6"/><circle cx="581.0" cy="253.0" r="1.6"/><circle cx="588.0" cy="253.0" r="1.6"/><circle cx="595.0" cy="253.0" r="1.6"/><circle cx="602.0" cy="253.0" r="1.6"/><circle cx="609.0" cy="253.0" r="1.6"/><circle cx="616.0" cy="253.0" r="1.6"/><circle cx="770.0" cy="253.0" r="1.6"/><circle cx="777.0" cy="253.0" r="1.6"/><circle cx="784.0" cy="253.0" r="1.6"/><circle cx="791.0" cy="253.0" r="1.6"/><circle cx="287.0" cy="260.0" r="1.6"/><circle cx="294.0" cy="260.0" r="1.6"/><circle cx="301.0" cy="260.0" r="1.6"/><circle cx="308.0" cy="260.0" r="1.6"/><circle cx="315.0" cy="260.0" r="1.6"/><circle cx="322.0" cy="260.0" r="1.6"/><circle cx="329.0" cy="260.0" r="1.6"/><circle cx="336.0" cy="260.0" r="1.6"/><circle cx="343.0" cy="260.0" r="1.6"/><circle cx="350.0" cy="260.0" r="1.6"/><circle cx="357.0" cy="260.0" r="1.6"/><circle cx="364.0" cy="260.0" r="1.6"/><circle cx="371.0" cy="260.0" r="1.6"/><circle cx="378.0" cy="260.0" r="1.6"/><circle cx="385.0" cy="260.0" r="1.6"/><circle cx="525.0" cy="260.0" r="1.6"/><circle cx="532.0" cy="260.0" r="1.6"/><circle cx="539.0" cy="260.0" r="1.6"/><circle cx="546.0" cy="260.0" r="1.6"/><circle cx="553.0" cy="260.0" r="1.6"/><circle cx="560.0" cy="260.0" r="1.6"/><circle cx="567.0" cy="260.0" r="1.6"/><circle cx="574.0" cy="260.0" r="1.6"/><circle cx="581.0" cy="260.0" r="1.6"/><circle cx="588.0" cy="260.0" r="1.6"/><circle cx="595.0" cy="260.0" r="1.6"/><circle cx="602.0" cy="260.0" r="1.6"/><circle cx="609.0" cy="260.0" r="1.6"/><circle cx="770.0" cy="260.0" r="1.6"/><circle cx="777.0" cy="260.0" r="1.6"/><circle cx="784.0" cy="260.0" r="1.6"/><circle cx="791.0" cy="260.0" r="1.6"/><circle cx="798.0" cy="260.0" r="1.6"/><circle cx="805.0" cy="260.0" r="1.6"/><circle cx="812.0" cy="260.0" r="1.6"/><circle cx="819.0" cy="260.0" r="1.6"/><circle cx="826.0" cy="260.0" r="1.6"/><circle cx="833.0" cy="260.0" r="1.6"/><circle cx="840.0" cy="260.0" r="1.6"/><circle cx="847.0" cy="260.0" r="1.6"/><circle cx="854.0" cy="260.0" r="1.6"/><circle cx="861.0" cy="260.0" r="1.6"/><circle cx="868.0" cy="260.0" r="1.6"/><circle cx="875.0" cy="260.0" r="1.6"/><circle cx="287.0" cy="267.0" r="1.6"/><circle cx="294.0" cy="267.0" r="1.6"/><circle cx="301.0" cy="267.0" r="1.6"/><circle cx="308.0" cy="267.0" r="1.6"/><circle cx="315.0" cy="267.0" r="1.6"/><circle cx="322.0" cy="267.0" r="1.6"/><circle cx="329.0" cy="267.0" r="1.6"/><circle cx="336.0" cy="267.0" r="1.6"/><circle cx="343.0" cy="267.0" r="1.6"/><circle cx="350.0" cy="267.0" r="1.6"/><circle cx="357.0" cy="267.0" r="1.6"/><circle cx="364.0" cy="267.0" r="1.6"/><circle cx="371.0" cy="267.0" r="1.6"/><circle cx="378.0" cy="267.0" r="1.6"/><circle cx="385.0" cy="267.0" r="1.6"/><circle cx="392.0" cy="267.0" r="1.6"/><circle cx="532.0" cy="267.0" r="1.6"/><circle cx="539.0" cy="267.0" r="1.6"/><circle cx="546.0" cy="267.0" r="1.6"/><circle cx="553.0" cy="267.0" r="1.6"/><circle cx="560.0" cy="267.0" r="1.6"/><circle cx="567.0" cy="267.0" r="1.6"/><circle cx="574.0" cy="267.0" r="1.6"/><circle cx="581.0" cy="267.0" r="1.6"/><circle cx="588.0" cy="267.0" r="1.6"/><circle cx="595.0" cy="267.0" r="1.6"/><circle cx="602.0" cy="267.0" r="1.6"/><circle cx="609.0" cy="267.0" r="1.6"/><circle cx="777.0" cy="267.0" r="1.6"/><circle cx="784.0" cy="267.0" r="1.6"/><circle cx="791.0" cy="267.0" r="1.6"/><circle cx="798.0" cy="267.0" r="1.6"/><circle cx="805.0" cy="267.0" r="1.6"/><circle cx="812.0" cy="267.0" r="1.6"/><circle cx="819.0" cy="267.0" r="1.6"/><circle cx="826.0" cy="267.0" r="1.6"/><circle cx="833.0" cy="267.0" r="1.6"/><circle cx="840.0" cy="267.0" r="1.6"/><circle cx="847.0" cy="267.0" r="1.6"/><circle cx="854.0" cy="267.0" r="1.6"/><circle cx="861.0" cy="267.0" r="1.6"/><circle cx="868.0" cy="267.0" r="1.6"/><circle cx="875.0" cy="267.0" r="1.6"/><circle cx="882.0" cy="267.0" r="1.6"/><circle cx="287.0" cy="274.0" r="1.6"/><circle cx="294.0" cy="274.0" r="1.6"/><circle cx="301.0" cy="274.0" r="1.6"/><circle cx="308.0" cy="274.0" r="1.6"/><circle cx="315.0" cy="274.0" r="1.6"/><circle cx="322.0" cy="274.0" r="1.6"/><circle cx="329.0" cy="274.0" r="1.6"/><circle cx="336.0" cy="274.0" r="1.6"/><circle cx="343.0" cy="274.0" r="1.6"/><circle cx="350.0" cy="274.0" r="1.6"/><circle cx="357.0" cy="274.0" r="1.6"/><circle cx="364.0" cy="274.0" r="1.6"/><circle cx="371.0" cy="274.0" r="1.6"/><circle cx="378.0" cy="274.0" r="1.6"/><circle cx="385.0" cy="274.0" r="1.6"/><circle cx="392.0" cy="274.0" r="1.6"/><circle cx="399.0" cy="274.0" r="1.6"/><circle cx="532.0" cy="274.0" r="1.6"/><circle cx="539.0" cy="274.0" r="1.6"/><circle cx="546.0" cy="274.0" r="1.6"/><circle cx="553.0" cy="274.0" r="1.6"/><circle cx="560.0" cy="274.0" r="1.6"/><circle cx="567.0" cy="274.0" r="1.6"/><circle cx="574.0" cy="274.0" r="1.6"/><circle cx="581.0" cy="274.0" r="1.6"/><circle cx="588.0" cy="274.0" r="1.6"/><circle cx="595.0" cy="274.0" r="1.6"/><circle cx="602.0" cy="274.0" r="1.6"/><circle cx="609.0" cy="274.0" r="1.6"/><circle cx="798.0" cy="274.0" r="1.6"/><circle cx="805.0" cy="274.0" r="1.6"/><circle cx="812.0" cy="274.0" r="1.6"/><circle cx="819.0" cy="274.0" r="1.6"/><circle cx="826.0" cy="274.0" r="1.6"/><circle cx="833.0" cy="274.0" r="1.6"/><circle cx="840.0" cy="274.0" r="1.6"/><circle cx="847.0" cy="274.0" r="1.6"/><circle cx="854.0" cy="274.0" r="1.6"/><circle cx="861.0" cy="274.0" r="1.6"/><circle cx="868.0" cy="274.0" r="1.6"/><circle cx="875.0" cy="274.0" r="1.6"/><circle cx="294.0" cy="281.0" r="1.6"/><circle cx="301.0" cy="281.0" r="1.6"/><circle cx="308.0" cy="281.0" r="1.6"/><circle cx="315.0" cy="281.0" r="1.6"/><circle cx="322.0" cy="281.0" r="1.6"/><circle cx="329.0" cy="281.0" r="1.6"/><circle cx="336.0" cy="281.0" r="1.6"/><circle cx="343.0" cy="281.0" r="1.6"/><circle cx="350.0" cy="281.0" r="1.6"/><circle cx="357.0" cy="281.0" r="1.6"/><circle cx="364.0" cy="281.0" r="1.6"/><circle cx="371.0" cy="281.0" r="1.6"/><circle cx="378.0" cy="281.0" r="1.6"/><circle cx="385.0" cy="281.0" r="1.6"/><circle cx="392.0" cy="281.0" r="1.6"/><circle cx="399.0" cy="281.0" r="1.6"/><circle cx="539.0" cy="281.0" r="1.6"/><circle cx="546.0" cy="281.0" r="1.6"/><circle cx="553.0" cy="281.0" r="1.6"/><circle cx="560.0" cy="281.0" r="1.6"/><circle cx="567.0" cy="281.0" r="1.6"/><circle cx="574.0" cy="281.0" r="1.6"/><circle cx="581.0" cy="281.0" r="1.6"/><circle cx="588.0" cy="281.0" r="1.6"/><circle cx="595.0" cy="281.0" r="1.6"/><circle cx="602.0" cy="281.0" r="1.6"/><circle cx="609.0" cy="281.0" r="1.6"/><circle cx="294.0" cy="288.0" r="1.6"/><circle cx="301.0" cy="288.0" r="1.6"/><circle cx="308.0" cy="288.0" r="1.6"/><circle cx="315.0" cy="288.0" r="1.6"/><circle cx="322.0" cy="288.0" r="1.6"/><circle cx="329.0" cy="288.0" r="1.6"/><circle cx="336.0" cy="288.0" r="1.6"/><circle cx="343.0" cy="288.0" r="1.6"/><circle cx="350.0" cy="288.0" r="1.6"/><circle cx="357.0" cy="288.0" r="1.6"/><circle cx="364.0" cy="288.0" r="1.6"/><circle cx="371.0" cy="288.0" r="1.6"/><circle cx="378.0" cy="288.0" r="1.6"/><circle cx="385.0" cy="288.0" r="1.6"/><circle cx="392.0" cy="288.0" r="1.6"/><circle cx="539.0" cy="288.0" r="1.6"/><circle cx="546.0" cy="288.0" r="1.6"/><circle cx="553.0" cy="288.0" r="1.6"/><circle cx="560.0" cy="288.0" r="1.6"/><circle cx="567.0" cy="288.0" r="1.6"/><circle cx="574.0" cy="288.0" r="1.6"/><circle cx="581.0" cy="288.0" r="1.6"/><circle cx="588.0" cy="288.0" r="1.6"/><circle cx="595.0" cy="288.0" r="1.6"/><circle cx="602.0" cy="288.0" r="1.6"/><circle cx="623.0" cy="288.0" r="1.6"/><circle cx="868.0" cy="288.0" r="1.6"/><circle cx="875.0" cy="288.0" r="1.6"/><circle cx="882.0" cy="288.0" r="1.6"/><circle cx="889.0" cy="288.0" r="1.6"/><circle cx="896.0" cy="288.0" r="1.6"/><circle cx="903.0" cy="288.0" r="1.6"/><circle cx="301.0" cy="295.0" r="1.6"/><circle cx="308.0" cy="295.0" r="1.6"/><circle cx="315.0" cy="295.0" r="1.6"/><circle cx="322.0" cy="295.0" r="1.6"/><circle cx="329.0" cy="295.0" r="1.6"/><circle cx="336.0" cy="295.0" r="1.6"/><circle cx="343.0" cy="295.0" r="1.6"/><circle cx="350.0" cy="295.0" r="1.6"/><circle cx="357.0" cy="295.0" r="1.6"/><circle cx="364.0" cy="295.0" r="1.6"/><circle cx="371.0" cy="295.0" r="1.6"/><circle cx="378.0" cy="295.0" r="1.6"/><circle cx="385.0" cy="295.0" r="1.6"/><circle cx="392.0" cy="295.0" r="1.6"/><circle cx="539.0" cy="295.0" r="1.6"/><circle cx="546.0" cy="295.0" r="1.6"/><circle cx="553.0" cy="295.0" r="1.6"/><circle cx="560.0" cy="295.0" r="1.6"/><circle cx="567.0" cy="295.0" r="1.6"/><circle cx="574.0" cy="295.0" r="1.6"/><circle cx="581.0" cy="295.0" r="1.6"/><circle cx="588.0" cy="295.0" r="1.6"/><circle cx="595.0" cy="295.0" r="1.6"/><circle cx="602.0" cy="295.0" r="1.6"/><circle cx="623.0" cy="295.0" r="1.6"/><circle cx="630.0" cy="295.0" r="1.6"/><circle cx="854.0" cy="295.0" r="1.6"/><circle cx="861.0" cy="295.0" r="1.6"/><circle cx="868.0" cy="295.0" r="1.6"/><circle cx="875.0" cy="295.0" r="1.6"/><circle cx="882.0" cy="295.0" r="1.6"/><circle cx="889.0" cy="295.0" r="1.6"/><circle cx="896.0" cy="295.0" r="1.6"/><circle cx="903.0" cy="295.0" r="1.6"/><circle cx="910.0" cy="295.0" r="1.6"/><circle cx="917.0" cy="295.0" r="1.6"/><circle cx="301.0" cy="302.0" r="1.6"/><circle cx="308.0" cy="302.0" r="1.6"/><circle cx="315.0" cy="302.0" r="1.6"/><circle cx="322.0" cy="302.0" r="1.6"/><circle cx="329.0" cy="302.0" r="1.6"/><circle cx="336.0" cy="302.0" r="1.6"/><circle cx="343.0" cy="302.0" r="1.6"/><circle cx="350.0" cy="302.0" r="1.6"/><circle cx="357.0" cy="302.0" r="1.6"/><circle cx="364.0" cy="302.0" r="1.6"/><circle cx="371.0" cy="302.0" r="1.6"/><circle cx="378.0" cy="302.0" r="1.6"/><circle cx="385.0" cy="302.0" r="1.6"/><circle cx="392.0" cy="302.0" r="1.6"/><circle cx="539.0" cy="302.0" r="1.6"/><circle cx="546.0" cy="302.0" r="1.6"/><circle cx="553.0" cy="302.0" r="1.6"/><circle cx="560.0" cy="302.0" r="1.6"/><circle cx="567.0" cy="302.0" r="1.6"/><circle cx="574.0" cy="302.0" r="1.6"/><circle cx="581.0" cy="302.0" r="1.6"/><circle cx="588.0" cy="302.0" r="1.6"/><circle cx="595.0" cy="302.0" r="1.6"/><circle cx="623.0" cy="302.0" r="1.6"/><circle cx="630.0" cy="302.0" r="1.6"/><circle cx="840.0" cy="302.0" r="1.6"/><circle cx="847.0" cy="302.0" r="1.6"/><circle cx="854.0" cy="302.0" r="1.6"/><circle cx="861.0" cy="302.0" r="1.6"/><circle cx="868.0" cy="302.0" r="1.6"/><circle cx="875.0" cy="302.0" r="1.6"/><circle cx="882.0" cy="302.0" r="1.6"/><circle cx="889.0" cy="302.0" r="1.6"/><circle cx="896.0" cy="302.0" r="1.6"/><circle cx="903.0" cy="302.0" r="1.6"/><circle cx="910.0" cy="302.0" r="1.6"/><circle cx="917.0" cy="302.0" r="1.6"/><circle cx="924.0" cy="302.0" r="1.6"/><circle cx="308.0" cy="309.0" r="1.6"/><circle cx="315.0" cy="309.0" r="1.6"/><circle cx="322.0" cy="309.0" r="1.6"/><circle cx="329.0" cy="309.0" r="1.6"/><circle cx="336.0" cy="309.0" r="1.6"/><circle cx="343.0" cy="309.0" r="1.6"/><circle cx="350.0" cy="309.0" r="1.6"/><circle cx="357.0" cy="309.0" r="1.6"/><circle cx="364.0" cy="309.0" r="1.6"/><circle cx="371.0" cy="309.0" r="1.6"/><circle cx="378.0" cy="309.0" r="1.6"/><circle cx="385.0" cy="309.0" r="1.6"/><circle cx="539.0" cy="309.0" r="1.6"/><circle cx="546.0" cy="309.0" r="1.6"/><circle cx="553.0" cy="309.0" r="1.6"/><circle cx="560.0" cy="309.0" r="1.6"/><circle cx="567.0" cy="309.0" r="1.6"/><circle cx="574.0" cy="309.0" r="1.6"/><circle cx="581.0" cy="309.0" r="1.6"/><circle cx="588.0" cy="309.0" r="1.6"/><circle cx="595.0" cy="309.0" r="1.6"/><circle cx="623.0" cy="309.0" r="1.6"/><circle cx="630.0" cy="309.0" r="1.6"/><circle cx="637.0" cy="309.0" r="1.6"/><circle cx="819.0" cy="309.0" r="1.6"/><circle cx="826.0" cy="309.0" r="1.6"/><circle cx="833.0" cy="309.0" r="1.6"/><circle cx="840.0" cy="309.0" r="1.6"/><circle cx="847.0" cy="309.0" r="1.6"/><circle cx="854.0" cy="309.0" r="1.6"/><circle cx="861.0" cy="309.0" r="1.6"/><circle cx="868.0" cy="309.0" r="1.6"/><circle cx="875.0" cy="309.0" r="1.6"/><circle cx="882.0" cy="309.0" r="1.6"/><circle cx="889.0" cy="309.0" r="1.6"/><circle cx="896.0" cy="309.0" r="1.6"/><circle cx="903.0" cy="309.0" r="1.6"/><circle cx="910.0" cy="309.0" r="1.6"/><circle cx="917.0" cy="309.0" r="1.6"/><circle cx="924.0" cy="309.0" r="1.6"/><circle cx="308.0" cy="316.0" r="1.6"/><circle cx="315.0" cy="316.0" r="1.6"/><circle cx="322.0" cy="316.0" r="1.6"/><circle cx="329.0" cy="316.0" r="1.6"/><circle cx="336.0" cy="316.0" r="1.6"/><circle cx="343.0" cy="316.0" r="1.6"/><circle cx="350.0" cy="316.0" r="1.6"/><circle cx="357.0" cy="316.0" r="1.6"/><circle cx="364.0" cy="316.0" r="1.6"/><circle cx="371.0" cy="316.0" r="1.6"/><circle cx="378.0" cy="316.0" r="1.6"/><circle cx="546.0" cy="316.0" r="1.6"/><circle cx="553.0" cy="316.0" r="1.6"/><circle cx="560.0" cy="316.0" r="1.6"/><circle cx="567.0" cy="316.0" r="1.6"/><circle cx="574.0" cy="316.0" r="1.6"/><circle cx="581.0" cy="316.0" r="1.6"/><circle cx="588.0" cy="316.0" r="1.6"/><circle cx="630.0" cy="316.0" r="1.6"/><circle cx="819.0" cy="316.0" r="1.6"/><circle cx="826.0" cy="316.0" r="1.6"/><circle cx="833.0" cy="316.0" r="1.6"/><circle cx="840.0" cy="316.0" r="1.6"/><circle cx="847.0" cy="316.0" r="1.6"/><circle cx="854.0" cy="316.0" r="1.6"/><circle cx="861.0" cy="316.0" r="1.6"/><circle cx="868.0" cy="316.0" r="1.6"/><circle cx="875.0" cy="316.0" r="1.6"/><circle cx="882.0" cy="316.0" r="1.6"/><circle cx="889.0" cy="316.0" r="1.6"/><circle cx="896.0" cy="316.0" r="1.6"/><circle cx="903.0" cy="316.0" r="1.6"/><circle cx="910.0" cy="316.0" r="1.6"/><circle cx="917.0" cy="316.0" r="1.6"/><circle cx="924.0" cy="316.0" r="1.6"/><circle cx="308.0" cy="323.0" r="1.6"/><circle cx="315.0" cy="323.0" r="1.6"/><circle cx="322.0" cy="323.0" r="1.6"/><circle cx="329.0" cy="323.0" r="1.6"/><circle cx="336.0" cy="323.0" r="1.6"/><circle cx="343.0" cy="323.0" r="1.6"/><circle cx="350.0" cy="323.0" r="1.6"/><circle cx="357.0" cy="323.0" r="1.6"/><circle cx="364.0" cy="323.0" r="1.6"/><circle cx="371.0" cy="323.0" r="1.6"/><circle cx="546.0" cy="323.0" r="1.6"/><circle cx="553.0" cy="323.0" r="1.6"/><circle cx="560.0" cy="323.0" r="1.6"/><circle cx="567.0" cy="323.0" r="1.6"/><circle cx="574.0" cy="323.0" r="1.6"/><circle cx="581.0" cy="323.0" r="1.6"/><circle cx="588.0" cy="323.0" r="1.6"/><circle cx="819.0" cy="323.0" r="1.6"/><circle cx="826.0" cy="323.0" r="1.6"/><circle cx="833.0" cy="323.0" r="1.6"/><circle cx="840.0" cy="323.0" r="1.6"/><circle cx="847.0" cy="323.0" r="1.6"/><circle cx="854.0" cy="323.0" r="1.6"/><circle cx="861.0" cy="323.0" r="1.6"/><circle cx="868.0" cy="323.0" r="1.6"/><circle cx="875.0" cy="323.0" r="1.6"/><circle cx="882.0" cy="323.0" r="1.6"/><circle cx="889.0" cy="323.0" r="1.6"/><circle cx="896.0" cy="323.0" r="1.6"/><circle cx="903.0" cy="323.0" r="1.6"/><circle cx="910.0" cy="323.0" r="1.6"/><circle cx="917.0" cy="323.0" r="1.6"/><circle cx="924.0" cy="323.0" r="1.6"/><circle cx="308.0" cy="330.0" r="1.6"/><circle cx="315.0" cy="330.0" r="1.6"/><circle cx="322.0" cy="330.0" r="1.6"/><circle cx="329.0" cy="330.0" r="1.6"/><circle cx="336.0" cy="330.0" r="1.6"/><circle cx="343.0" cy="330.0" r="1.6"/><circle cx="350.0" cy="330.0" r="1.6"/><circle cx="357.0" cy="330.0" r="1.6"/><circle cx="364.0" cy="330.0" r="1.6"/><circle cx="546.0" cy="330.0" r="1.6"/><circle cx="553.0" cy="330.0" r="1.6"/><circle cx="560.0" cy="330.0" r="1.6"/><circle cx="567.0" cy="330.0" r="1.6"/><circle cx="574.0" cy="330.0" r="1.6"/><circle cx="581.0" cy="330.0" r="1.6"/><circle cx="819.0" cy="330.0" r="1.6"/><circle cx="826.0" cy="330.0" r="1.6"/><circle cx="833.0" cy="330.0" r="1.6"/><circle cx="840.0" cy="330.0" r="1.6"/><circle cx="847.0" cy="330.0" r="1.6"/><circle cx="854.0" cy="330.0" r="1.6"/><circle cx="861.0" cy="330.0" r="1.6"/><circle cx="868.0" cy="330.0" r="1.6"/><circle cx="875.0" cy="330.0" r="1.6"/><circle cx="882.0" cy="330.0" r="1.6"/><circle cx="889.0" cy="330.0" r="1.6"/><circle cx="896.0" cy="330.0" r="1.6"/><circle cx="903.0" cy="330.0" r="1.6"/><circle cx="910.0" cy="330.0" r="1.6"/><circle cx="917.0" cy="330.0" r="1.6"/><circle cx="308.0" cy="337.0" r="1.6"/><circle cx="315.0" cy="337.0" r="1.6"/><circle cx="322.0" cy="337.0" r="1.6"/><circle cx="329.0" cy="337.0" r="1.6"/><circle cx="336.0" cy="337.0" r="1.6"/><circle cx="343.0" cy="337.0" r="1.6"/><circle cx="350.0" cy="337.0" r="1.6"/><circle cx="357.0" cy="337.0" r="1.6"/><circle cx="553.0" cy="337.0" r="1.6"/><circle cx="560.0" cy="337.0" r="1.6"/><circle cx="567.0" cy="337.0" r="1.6"/><circle cx="574.0" cy="337.0" r="1.6"/><circle cx="581.0" cy="337.0" r="1.6"/><circle cx="826.0" cy="337.0" r="1.6"/><circle cx="833.0" cy="337.0" r="1.6"/><circle cx="840.0" cy="337.0" r="1.6"/><circle cx="847.0" cy="337.0" r="1.6"/><circle cx="854.0" cy="337.0" r="1.6"/><circle cx="861.0" cy="337.0" r="1.6"/><circle cx="868.0" cy="337.0" r="1.6"/><circle cx="875.0" cy="337.0" r="1.6"/><circle cx="882.0" cy="337.0" r="1.6"/><circle cx="889.0" cy="337.0" r="1.6"/><circle cx="896.0" cy="337.0" r="1.6"/><circle cx="903.0" cy="337.0" r="1.6"/><circle cx="910.0" cy="337.0" r="1.6"/><circle cx="917.0" cy="337.0" r="1.6"/><circle cx="308.0" cy="344.0" r="1.6"/><circle cx="315.0" cy="344.0" r="1.6"/><circle cx="322.0" cy="344.0" r="1.6"/><circle cx="329.0" cy="344.0" r="1.6"/><circle cx="336.0" cy="344.0" r="1.6"/><circle cx="343.0" cy="344.0" r="1.6"/><circle cx="350.0" cy="344.0" r="1.6"/><circle cx="553.0" cy="344.0" r="1.6"/><circle cx="560.0" cy="344.0" r="1.6"/><circle cx="875.0" cy="344.0" r="1.6"/><circle cx="882.0" cy="344.0" r="1.6"/><circle cx="889.0" cy="344.0" r="1.6"/><circle cx="896.0" cy="344.0" r="1.6"/><circle cx="903.0" cy="344.0" r="1.6"/><circle cx="910.0" cy="344.0" r="1.6"/><circle cx="308.0" cy="351.0" r="1.6"/><circle cx="315.0" cy="351.0" r="1.6"/><circle cx="322.0" cy="351.0" r="1.6"/><circle cx="329.0" cy="351.0" r="1.6"/><circle cx="336.0" cy="351.0" r="1.6"/><circle cx="343.0" cy="351.0" r="1.6"/><circle cx="882.0" cy="351.0" r="1.6"/><circle cx="889.0" cy="351.0" r="1.6"/><circle cx="896.0" cy="351.0" r="1.6"/><circle cx="903.0" cy="351.0" r="1.6"/><circle cx="910.0" cy="351.0" r="1.6"/><circle cx="973.0" cy="351.0" r="1.6"/><circle cx="308.0" cy="358.0" r="1.6"/><circle cx="315.0" cy="358.0" r="1.6"/><circle cx="322.0" cy="358.0" r="1.6"/><circle cx="329.0" cy="358.0" r="1.6"/><circle cx="973.0" cy="358.0" r="1.6"/><circle cx="980.0" cy="358.0" r="1.6"/><circle cx="987.0" cy="358.0" r="1.6"/><circle cx="308.0" cy="365.0" r="1.6"/><circle cx="315.0" cy="365.0" r="1.6"/><circle cx="322.0" cy="365.0" r="1.6"/><circle cx="966.0" cy="365.0" r="1.6"/><circle cx="973.0" cy="365.0" r="1.6"/><circle cx="980.0" cy="365.0" r="1.6"/><circle cx="987.0" cy="365.0" r="1.6"/><circle cx="301.0" cy="372.0" r="1.6"/><circle cx="308.0" cy="372.0" r="1.6"/><circle cx="315.0" cy="372.0" r="1.6"/><circle cx="966.0" cy="372.0" r="1.6"/><circle cx="973.0" cy="372.0" r="1.6"/><circle cx="980.0" cy="372.0" r="1.6"/><circle cx="987.0" cy="372.0" r="1.6"/><circle cx="994.0" cy="372.0" r="1.6"/><circle cx="301.0" cy="379.0" r="1.6"/><circle cx="308.0" cy="379.0" r="1.6"/><circle cx="301.0" cy="386.0" r="1.6"/><circle cx="301.0" cy="393.0" r="1.6"/></svg>